<svg xmlns="http://www.w3.org/2000/svg" xmlns:xlink="http://www.w3.org/1999/xlink" version="1.1" id="Ringbound_Document" x="0px" y="0px" width="100px" height="100px" viewBox="5.0 -10.0 100.0 135.0" enable-background="new 0 0 100 100" xml:space="preserve">
<g>
	<g>
		<g>
			<g>
			</g>
		</g>
		<g>
		</g>
	</g>
</g>
<path d="M90.46,85.252H11.054c-2.076,0-4.551-0.854-4.551-4.917l-0.005-0.134C6.433,78.274,6.4,76.514,6.4,74.974  c0-0.681,0.086-1.19,0.137-1.436c4.186-20.051,12.105-58.449,12.284-59.625l0.988,0.149l-0.976-0.248l0.014-0.053  c0.07-0.258,0.146-0.505,0.228-0.742l0.034-0.095c0.661-1.84,1.753-2.946,4.371-2.946h54.629c3.147,0,3.909,2.166,4.465,3.748  l0.052,0.21c0.045,0.225,8.351,41.64,12.338,59.587l0.029,0.127l-0.002,0.131c0,0-0.059,6.429-0.058,6.688  c0.026,0.631-0.036,2.308-1.213,3.534C92.923,84.833,91.828,85.252,90.46,85.252z M20.997,14.388  c-0.109,0.882-0.471,2.66-1.267,6.558c-0.837,4.105-2.001,9.771-3.292,16.034c-2.581,12.526-5.671,27.439-7.672,37.024  c-0.026,0.129-0.088,0.479-0.088,0.97c0,1.514,0.032,3.249,0.098,5.149l0.005,0.212c0,2.208,0.834,2.64,2.274,2.64H90.46  c0.734,0,1.262-0.18,1.616-0.548c0.465-0.485,0.606-1.299,0.582-1.899c-0.003-0.039-0.005-0.105,0.054-6.637  c-3.955-17.824-11.79-56.856-12.31-59.477c-0.567-1.602-0.854-2.159-2.294-2.159H23.479c-1.64,0-1.975,0.424-2.436,2.109L21,14.353  c-0.002,0.012-0.002,0.022-0.003,0.034l0.036,0.012L20.997,14.388z M19.949,14.102v1.09V14.102z"/>
<path d="M91.074,76.683H10.521c-0.636,0-2.218-0.126-3.162-1.284c-0.439-0.541-0.896-1.51-0.572-3.066l2.229,0.463  c-0.078,0.375-0.123,0.884,0.108,1.166c0.266,0.328,0.918,0.444,1.396,0.444h80.553c0.388,0,0.746-0.169,0.986-0.463  c0.344-0.422,0.437-1.075,0.271-1.888l2.229-0.462c0.308,1.485,0.048,2.83-0.732,3.789C93.153,76.209,92.151,76.683,91.074,76.683z"/>
<path d="M7.197,78.018c-0.012-0.656,0.28-1.335,0.798-1.863c0.64-0.649,1.55-1.01,2.564-1.01v1.519  c-0.603,0-1.129,0.196-1.481,0.555c-0.232,0.235-0.368,0.525-0.363,0.774L7.197,78.018z"/>
<path d="M94.197,78.018l-1.519-0.025c0.005-0.249-0.133-0.539-0.363-0.774c-0.352-0.358-0.878-0.555-1.48-0.555v-1.519  c1.013,0,1.923,0.36,2.563,1.01C93.917,76.683,94.208,77.361,94.197,78.018z"/>
<rect x="9.379" y="78.371" width="82.704" height="0.758"/>
<rect x="9.379" y="80.79" width="82.704" height="0.759"/>
<polygon points="77.902,22.503 29.782,22.503 30.233,18.692 77.254,18.692 "/>
<polygon points="54.625,26.304 29.315,26.304 29.576,23.998 54.6,23.998 "/>
<g>
	<polygon points="60.343,34.268 60.343,33.509 28.408,33.509 28.314,34.268  "/>
	<polygon points="69.44,38.062 69.44,37.303 27.939,37.303 27.846,38.062  "/>
	<polygon points="69.866,41.858 69.866,41.099 27.471,41.099 27.376,41.858  "/>
	<polygon points="69.133,45.654 69.133,44.896 27.001,44.896 26.908,45.654  "/>
	<polygon points="70.6,49.449 70.6,48.689 26.533,48.689 26.439,49.449  "/>
	<polygon points="72.515,53.212 72.515,52.452 26.068,52.452 25.974,53.212  "/>
	<polygon points="39.46,68.742 39.46,67.223 24.244,67.223 24.055,68.742  "/>
</g>
<g>
	<path d="M24.833,21.981c-0.072-0.262-2.411-1.819-4.286-1.819c-4.994,0-8.003,2.518-8.003,6.491c0,2.381,1.458,4.485,3.696,5.794   l0.384-2.162l0.001-0.001c-1.035-0.872-1.672-2.037-1.672-3.322c0-2.696,1.745-4.175,5.182-4.175c2.192,0,3.655,1.306,4.2,1.401   C24.654,23.868,25.053,22.202,24.833,21.981z"/>
</g>
<path d="M25.753,22.694c0,0.91-0.625,1.648-1.76,1.648c-1.179,0-1.759-0.738-1.759-1.648c0-0.764,0.787-1.491,1.759-1.491  C24.984,21.203,25.753,21.962,25.753,22.694z"/>
<g>
	<path d="M20.143,52.194c-0.087-0.32-2.968-2.238-5.277-2.238c-6.151,0-9.857,3.099-9.857,7.995c0,2.93,1.795,5.522,4.552,7.135   l0.474-2.663l0-0.002c-1.275-1.074-2.06-2.51-2.06-4.09c0-3.32,2.152-5.144,6.383-5.144c2.699,0,4.5,1.607,5.172,1.725   C19.925,54.518,20.416,52.469,20.143,52.194z"/>
</g>
<path d="M21.278,53.072c0,1.123-0.771,2.034-2.167,2.034c-1.453,0-2.167-0.911-2.167-2.034c0-0.939,0.971-1.836,2.167-1.836  C20.331,51.236,21.278,52.171,21.278,53.072z"/>
<text x="0.0" y="117.5" font-size="5.0" font-weight="bold" font-family="Helvetica Neue, Helvetica, Arial-Unicode, Arial, Sans-serif" fill="#000000">Created by James Cook</text><text x="0.0" y="122.5" font-size="5.0" font-weight="bold" font-family="Helvetica Neue, Helvetica, Arial-Unicode, Arial, Sans-serif" fill="#000000">from the Noun Project</text></svg>