<svg xmlns="http://www.w3.org/2000/svg" xmlns:xlink="http://www.w3.org/1999/xlink" version="1.1" id="Your_Icon" x="0px" y="0px" width="100px" height="100px" viewBox="5.0 -10.0 100.0 135.0" enable-background="new 0 0 100 100" xml:space="preserve">
<g>
	<g>
		<path d="M-3173.395,76.667c-0.852,0-1.641-0.548-1.909-1.404c-0.329-1.054,0.258-2.176,1.313-2.505l18.167-5.675    c1.055-0.329,2.176,0.259,2.505,1.313c0.329,1.054-0.258,2.176-1.313,2.505l-18.167,5.675    C-3172.997,76.638-3173.198,76.667-3173.395,76.667z"/>
	</g>
	<g>
		<path d="M-3195.593,76.667c-0.197,0-0.398-0.029-0.597-0.091l-18.167-5.675c-1.055-0.33-1.642-1.451-1.313-2.505    c0.33-1.055,1.451-1.645,2.505-1.313l18.167,5.675c1.055,0.33,1.642,1.451,1.313,2.505    C-3193.952,76.119-3194.741,76.667-3195.593,76.667z"/>
	</g>
</g>
<g>
	<g>
		<path d="M-3173.395,65.19c-0.852,0-1.641-0.548-1.909-1.404c-0.329-1.054,0.259-2.176,1.313-2.505l18.167-5.674    c1.055-0.33,2.176,0.259,2.505,1.313c0.329,1.054-0.259,2.176-1.313,2.505l-18.167,5.674    C-3172.997,65.161-3173.198,65.19-3173.395,65.19z"/>
	</g>
	<g>
		<path d="M-3195.593,65.19c-0.197,0-0.398-0.029-0.597-0.091l-18.167-5.674c-1.054-0.33-1.642-1.451-1.313-2.505    c0.33-1.055,1.451-1.643,2.505-1.313l18.167,5.674c1.054,0.33,1.642,1.451,1.313,2.505    C-3193.952,64.642-3194.741,65.19-3195.593,65.19z"/>
	</g>
</g>
<g>
	<g>
		<path d="M-3173.395,53.713c-0.852,0-1.641-0.548-1.909-1.404c-0.329-1.054,0.259-2.176,1.313-2.505l18.167-5.674    c1.055-0.331,2.176,0.259,2.505,1.313c0.329,1.054-0.259,2.176-1.313,2.505l-18.167,5.674    C-3172.997,53.684-3173.198,53.713-3173.395,53.713z"/>
	</g>
	<g>
		<path d="M-3195.593,53.713c-0.197,0-0.398-0.029-0.597-0.091l-18.167-5.674c-1.054-0.33-1.642-1.451-1.313-2.505    c0.33-1.055,1.451-1.644,2.505-1.313l18.167,5.674c1.054,0.33,1.642,1.451,1.313,2.505    C-3193.952,53.165-3194.741,53.713-3195.593,53.713z"/>
	</g>
</g>
<g>
	<g>
		<path d="M-3173.395,42.237c-0.852,0-1.641-0.548-1.909-1.404c-0.329-1.054,0.258-2.176,1.313-2.505l18.167-5.675    c1.055-0.331,2.176,0.259,2.505,1.313c0.329,1.054-0.258,2.176-1.313,2.505l-18.167,5.675    C-3172.997,42.208-3173.198,42.237-3173.395,42.237z"/>
	</g>
	<g>
		<path d="M-3195.593,42.237c-0.197,0-0.398-0.029-0.597-0.091l-18.167-5.675c-1.055-0.33-1.642-1.451-1.313-2.505    c0.33-1.054,1.451-1.644,2.505-1.313l18.167,5.675c1.055,0.33,1.642,1.451,1.313,2.505    C-3193.952,41.688-3194.741,42.237-3195.593,42.237z"/>
	</g>
</g>
<g>
	<path d="M-3141.89,9.99c-0.77-0.57-1.76-0.73-2.67-0.45l-39.57,12.36l-39.57-12.36c-0.91-0.28-1.9-0.12-2.67,0.45   c-0.77,0.56-1.22,1.46-1.22,2.41v69.8c0,1.32,0.85,2.48,2.1,2.87l40.47,12.64c0.06,0.02,0.11,0.03,0.17,0.04   c0.06,0.02,0.12,0.03,0.18,0.04c0.08,0.01,0.15,0.03,0.22,0.03c0.11,0.01,0.21,0.02,0.32,0.02s0.21-0.01,0.32-0.02   c0.07,0,0.15-0.02,0.23-0.03c0.05-0.01,0.1-0.02,0.15-0.03c0.07-0.01,0.13-0.03,0.2-0.05l40.46-12.64c1.25-0.39,2.1-1.55,2.1-2.87   V12.4C-3140.67,11.45-3141.12,10.55-3141.89,9.99z M-3221.59,16.48l34.46,10.77v63.51L-3221.59,80V16.48z M-3146.67,80   l-34.46,10.76V27.25l34.46-10.77V80z"/>
</g>
<g>
	<path d="M73.76,5H26.24c-0.575,0-1.046,0.47-1.046,1.046v87.909c0,0.575,0.471,1.046,1.046,1.046h47.52   c0.575,0,1.046-0.47,1.046-1.046V6.046C74.806,5.47,74.335,5,73.76,5z M72.714,92.909H27.286V80.885h45.429V92.909z M72.714,78.794   H27.286V20.558h45.429V78.794z M72.714,18.467H27.286V7.091h45.429V18.467z"/>
</g>
<g>
	<path d="M53.298,13.805h-6.596c-0.577,0-1.046-0.468-1.046-1.046s0.468-1.046,1.046-1.046h6.596c0.577,0,1.046,0.468,1.046,1.046   S53.875,13.805,53.298,13.805z"/>
</g>
<g>
	<path d="M50,90.718c-2.162,0-3.921-1.759-3.921-3.921s1.759-3.921,3.921-3.921s3.921,1.759,3.921,3.921S52.162,90.718,50,90.718z    M50,84.967c-1.009,0-1.83,0.821-1.83,1.83s0.821,1.83,1.83,1.83s1.83-0.821,1.83-1.83S51.009,84.967,50,84.967z"/>
</g>
<g>
	<g>
		<g>
			<path fill="#000000" d="M65.657,33.179c-0.268,0-0.535-0.102-0.739-0.306c-0.408-0.408-0.408-1.07,0-1.478l0.829-0.829     l-0.829-0.829c-0.408-0.408-0.408-1.07,0-1.478c0.408-0.408,1.07-0.408,1.479,0l1.568,1.568c0.408,0.408,0.408,1.07,0,1.478     l-1.568,1.568C66.192,33.077,65.925,33.179,65.657,33.179z"/>
		</g>
	</g>
	<g>
		<path d="M40.894,35.631h-8.041c-0.577,0-1.046-0.468-1.046-1.046v-8.04c0-0.577,0.468-1.046,1.046-1.046h8.041    c0.577,0,1.046,0.468,1.046,1.046v8.04C41.939,35.163,41.471,35.631,40.894,35.631z M33.899,33.54h5.949v-5.949h-5.949V33.54z"/>
	</g>
	<g>
		<path d="M59.558,29.302H46.227c-0.577,0-1.046-0.468-1.046-1.046s0.468-1.046,1.046-1.046h13.331c0.577,0,1.046,0.468,1.046,1.046    S60.136,29.302,59.558,29.302z"/>
	</g>
	<g>
		<path d="M57.728,33.92H46.227c-0.577,0-1.046-0.468-1.046-1.046s0.468-1.046,1.046-1.046h11.501c0.577,0,1.046,0.468,1.046,1.046    S58.306,33.92,57.728,33.92z"/>
	</g>
</g>
<g>
	<g>
		<g>
			<path fill="#000000" d="M65.657,46.958c-0.268,0-0.535-0.102-0.739-0.306c-0.408-0.408-0.408-1.07,0-1.478l0.829-0.829     l-0.829-0.829c-0.408-0.408-0.408-1.07,0-1.478c0.408-0.408,1.07-0.408,1.479,0l1.568,1.568c0.408,0.408,0.408,1.07,0,1.478     l-1.568,1.568C66.192,46.856,65.925,46.958,65.657,46.958z"/>
		</g>
	</g>
	<g>
		<path d="M40.894,49.41h-8.041c-0.577,0-1.046-0.468-1.046-1.046v-8.041c0-0.577,0.468-1.046,1.046-1.046h8.041    c0.577,0,1.046,0.468,1.046,1.046v8.041C41.939,48.942,41.471,49.41,40.894,49.41z M33.899,47.319h5.949v-5.95h-5.949V47.319z"/>
	</g>
	<g>
		<path d="M59.558,43.081H46.227c-0.577,0-1.046-0.468-1.046-1.046c0-0.577,0.468-1.046,1.046-1.046h13.331    c0.577,0,1.046,0.468,1.046,1.046C60.604,42.612,60.136,43.081,59.558,43.081z"/>
	</g>
	<g>
		<path d="M57.728,47.699H46.227c-0.577,0-1.046-0.468-1.046-1.046c0-0.577,0.468-1.046,1.046-1.046h11.501    c0.577,0,1.046,0.468,1.046,1.046C58.774,47.231,58.306,47.699,57.728,47.699z"/>
	</g>
</g>
<g>
	<g>
		<g>
			<path fill="#000000" d="M65.657,60.737c-0.268,0-0.535-0.102-0.739-0.306c-0.408-0.408-0.408-1.07,0-1.478l0.829-0.829     l-0.829-0.829c-0.408-0.408-0.408-1.07,0-1.478c0.408-0.408,1.07-0.408,1.479,0l1.568,1.568c0.408,0.408,0.408,1.07,0,1.478     l-1.568,1.568C66.192,60.635,65.925,60.737,65.657,60.737z"/>
		</g>
	</g>
	<g>
		<path d="M40.894,63.189h-8.041c-0.577,0-1.046-0.468-1.046-1.046v-8.041c0-0.577,0.468-1.046,1.046-1.046h8.041    c0.577,0,1.046,0.468,1.046,1.046v8.041C41.939,62.721,41.471,63.189,40.894,63.189z M33.899,61.098h5.949v-5.95h-5.949V61.098z"/>
	</g>
	<g>
		<path d="M59.558,56.859H46.227c-0.577,0-1.046-0.468-1.046-1.046s0.468-1.046,1.046-1.046h13.331c0.577,0,1.046,0.468,1.046,1.046    S60.136,56.859,59.558,56.859z"/>
	</g>
	<g>
		<path d="M57.728,61.477H46.227c-0.577,0-1.046-0.468-1.046-1.046s0.468-1.046,1.046-1.046h11.501c0.577,0,1.046,0.468,1.046,1.046    S58.306,61.477,57.728,61.477z"/>
	</g>
</g>
<g>
	<g>
		<g>
			<path fill="#000000" d="M65.657,74.515c-0.268,0-0.535-0.102-0.739-0.306c-0.408-0.408-0.408-1.07,0-1.478l0.829-0.829     l-0.829-0.829c-0.408-0.408-0.408-1.07,0-1.478c0.408-0.408,1.07-0.408,1.479,0l1.568,1.568c0.408,0.408,0.408,1.07,0,1.478     l-1.568,1.568C66.192,74.413,65.925,74.515,65.657,74.515z"/>
		</g>
	</g>
	<g>
		<path d="M40.894,76.967h-8.041c-0.577,0-1.046-0.468-1.046-1.046v-8.041c0-0.577,0.468-1.046,1.046-1.046h8.041    c0.577,0,1.046,0.468,1.046,1.046v8.041C41.939,76.499,41.471,76.967,40.894,76.967z M33.899,74.876h5.949v-5.95h-5.949V74.876z"/>
	</g>
	<g>
		<path d="M59.558,70.638H46.227c-0.577,0-1.046-0.468-1.046-1.046c0-0.577,0.468-1.046,1.046-1.046h13.331    c0.577,0,1.046,0.468,1.046,1.046C60.604,70.17,60.136,70.638,59.558,70.638z"/>
	</g>
	<g>
		<path d="M57.728,75.256H46.227c-0.577,0-1.046-0.468-1.046-1.046c0-0.577,0.468-1.046,1.046-1.046h11.501    c0.577,0,1.046,0.468,1.046,1.046C58.774,74.788,58.306,75.256,57.728,75.256z"/>
	</g>
</g>
<text x="0.0" y="117.5" font-size="5.0" font-weight="bold" font-family="Helvetica Neue, Helvetica, Arial-Unicode, Arial, Sans-serif" fill="#000000">Created by Garrett Knoll</text><text x="0.0" y="122.5" font-size="5.0" font-weight="bold" font-family="Helvetica Neue, Helvetica, Arial-Unicode, Arial, Sans-serif" fill="#000000">from the Noun Project</text></svg>