<?xml version="1.0" encoding="UTF-8" standalone="no"?>
<svg width="550px" height="550px" viewBox="0 0 550 550" version="1.1" xmlns="http://www.w3.org/2000/svg" xmlns:xlink="http://www.w3.org/1999/xlink" xmlns:sketch="http://www.bohemiancoding.com/sketch/ns">
    <title>Shepherd Dog Logo</title>
    <description>Created with Sketch (http://www.bohemiancoding.com/sketch)</description>
    <defs>
        <path id="path-1" d="M244.48873,271.529079 L203.994568,187.915351 C203.994568,187.915351 231.464672,200.752064 248.165531,208.037967 C264.86639,215.32387 282.355968,229.983678 285.284649,230.481594 C293.883289,231.943483 304.18591,237.08542 306.12149,243.991603 C312.357292,266.241065 332.523529,266.500098 342.321503,271.529082 C352.119477,276.558066 354.686737,279.652228 354.686737,279.652228 L244.48873,271.529079 Z"></path>
    </defs>
    <g id="Page-1" stroke="none" stroke-width="1" fill="none" fill-rule="evenodd" sketch:type="MSPage">
        <g id="Group" sketch:type="MSLayerGroup" transform="translate(-2.000000, 24.000000)">
            <path d="M275.026136,500 C413.09733,500 525.026136,388.071194 525.026136,250 C525.026136,111.928806 413.09733,0 275.026136,0 C136.954942,0 25.0261362,111.928806 25.0261362,250 C25.0261362,388.071194 136.954942,500 275.026136,500 Z" id="Oval-1" stroke="#000000" stroke-width="25" sketch:type="MSShapeGroup"></path>
            <path d="M151.808889,444.414934 C126.022557,420.851496 122.317129,412.901851 122.317129,412.901851 C122.317129,412.901851 217.448826,425.498033 224.905664,425.498031 C232.362503,425.49803 265.778234,441.258725 265.778234,441.258725 C265.778234,441.258725 247.726498,434.614807 229.526655,444.414933 C217.405035,450.9421 185.401792,471.270553 185.352789,476.023478 C185.333521,477.892307 177.595217,467.978373 151.808889,444.414934 Z" id="Triangle-1" stroke="#000000" fill="#000000" sketch:type="MSShapeGroup" transform="translate(193.977836, 444.356716) rotate(-15.000000) translate(-193.977836, -444.356716) "></path>
            <path d="M152.120208,52.8255113 C159.005725,39.6422894 163.046779,48.7834987 163.046779,48.7834987 C163.046779,48.7834987 168.472195,66.9849811 178.149835,91.6650455 C194.294408,132.83717 278.81275,209.571611 292.134676,229.341337 C293.764628,231.760184 269.25287,247.989371 269.25287,247.989371 L80.0220214,322.748999 C80.0220214,322.748999 106.582586,140.013253 152.120208,52.8255113 Z" id="Triangle-1" stroke="#000000" fill="#000000" sketch:type="MSShapeGroup" transform="translate(185.913362, 184.589286) rotate(26.000000) translate(-185.913362, -184.589286) "></path>
            <path d="M55.0642804,370.309636 C16.617762,313.000766 19.2160045,296.536481 19.2160045,296.294896 C19.2160045,296.053309 55.0642798,250.459243 55.0642798,250.459243 L239.83364,236.110398 L403.596388,366.450272 C403.596388,366.450272 401.649129,395.097474 382.186659,395.097474 C362.724188,395.097475 265.996097,370.309636 265.996097,370.309636 L253.481488,415.793351 L162.636798,458.474708 C162.636798,458.474708 103.708873,442.819905 55.0642804,370.309636 Z" id="Path-6" stroke="#000000" fill="#000000" sketch:type="MSShapeGroup" transform="translate(211.345943, 347.110398) rotate(12.000000) translate(-211.345943, -347.110398) "></path>
            <g id="Triangle-1">
                <use stroke="#000000" stroke-width="1" fill="#000000" fill-rule="evenodd" sketch:type="MSShapeGroup" transform="translate(279.219077, 233.826896) rotate(18.000000) translate(-279.219077, -233.826896) " xlink:href="#path-1"></use>
                <use stroke="none" fill="none" xlink:href="#path-1"></use>
            </g>
            <path d="M355.494258,414.503041 L224.406839,382.918852 L205.368755,439.331461 L355.494258,414.503041 Z" id="Triangle-1" stroke="#000000" fill="#000000" sketch:type="MSShapeGroup" transform="translate(280.549305, 411.388262) rotate(17.000000) translate(-280.549305, -411.388262) "></path>
            <path d="M239.583409,277.282046 L427.559377,328.171594 L398.468648,409.887805 L239.583409,277.282046 Z" id="Triangle-1" stroke="#000000" fill="#000000" sketch:type="MSShapeGroup" transform="translate(333.583409, 343.782046) rotate(23.000000) translate(-333.583409, -343.782046) "></path>
            <path d="M395.378983,334.199477 C391.392317,334.288128 357.853875,340.721592 346.650896,343.177153 C327.760352,343.177153 372.254685,349.752547 382.373993,353.89639 C387.029602,355.802855 391.058331,357.194644 391.058331,357.194644 L453.031456,343.177153 C453.031456,343.177153 406.440551,333.953505 395.378983,334.199477 Z" id="Path-5" stroke="#000000" fill="#000000" sketch:type="MSShapeGroup" transform="translate(397.531456, 345.694644) rotate(37.000000) translate(-397.531456, -345.694644) "></path>
            <path d="M357.21457,404.200226 C357.21457,404.200226 322.793959,366.295018 334.990704,368.834854 C336.104111,370.122128 391.966498,350.288631 420.088362,361.762511 C427.015858,364.588968 446.7145,393.095942 446.7145,396.676241 C446.714499,414.79061 356.287385,430.697642 356.287385,430.697642 L357.21457,404.200226 Z" id="Triangle-1" stroke="#000000" fill="#000000" sketch:type="MSShapeGroup" transform="translate(389.266306, 394.242402) rotate(-18.000000) translate(-389.266306, -394.242402) "></path>
            <path d="M292.621764,432.721415 C341.704265,432.721415 381.493489,419.961531 381.493489,404.221415 C381.493489,388.481299 341.704265,375.721415 292.621764,375.721415 C243.539263,375.721415 203.75004,388.481299 203.75004,404.221415 C203.75004,419.961531 243.539263,432.721415 292.621764,432.721415 Z" id="Oval-2" stroke="#000000" fill="#000000" sketch:type="MSShapeGroup" transform="translate(292.750040, 404.221415) rotate(18.000000) translate(-292.750040, -404.221415) "></path>
        </g>
    </g>
</svg>