<?xml version="1.0" encoding="UTF-8"?>
<svg width="528px" height="526px" viewBox="0 0 528 526" version="1.1" xmlns="http://www.w3.org/2000/svg" xmlns:xlink="http://www.w3.org/1999/xlink" xmlns:sketch="http://www.bohemiancoding.com/sketch/ns">
    <title>Logo for Site 1</title>
    <description>Created with Sketch (http://www.bohemiancoding.com/sketch)</description>
    <defs></defs>
    <g id="Page-1" stroke="none" stroke-width="1" fill="none" fill-rule="evenodd" sketch:type="MSPage">
        <g id="Triangle-1-+-Oval-1" sketch:type="MSLayerGroup" transform="translate(-9.000000, 15.000000)" stroke="#000000">
            <path d="M263.71796,420.869263 L251.23552,419.201716 C244.368716,420.212191 234.606998,423.103048 226.155851,431.06736 C216.232041,440.4195 190.824972,468.072433 191.996521,472.632245 C192.457169,474.425142 182.512251,466.923965 151.801202,450.990629 C121.09015,435.057294 115.507144,428.401559 115.507144,428.401559 C115.507144,428.401559 116.901043,428.219102 119.362635,427.895127 L119.362635,427.895127 C100.739708,412.580387 72.8737916,383.282744 53.1450072,334.097417 C35.2554937,289.497545 32.8626213,268.633182 33.0364156,260.092905 L29.8862558,259.848165 C29.8862558,259.848165 132.87454,108.703068 211.270269,50.8578289 C223.124095,42.11134 222.752501,52.0037668 222.752501,52.0037668 C222.752501,52.0037668 219.679377,70.5630418 217.578752,96.7360711 C216.058825,115.673848 223.084764,146.152139 231.796602,176.505438 C239.074742,183.226277 248.25517,191.642133 255.200764,197.80215 C268.702928,209.77716 280.691105,228.939787 283.297519,230.305216 C290.949982,234.314134 299.081226,242.311197 298.790737,249.409244 C298.357885,259.985877 302.172048,267.043242 307.158102,272.339646 L355.507698,310.316317 L355.507698,310.316317 C366.286228,315.289936 395.739625,329.756802 398.894851,332.026245 C407.336401,338.097957 435.998963,369.980818 438.909262,373.226779 C439.752778,374.1013 440.285089,374.781545 440.420075,375.196989 C445.215119,389.954622 385.790768,423.85894 369.641339,432.753425 C357.389919,442.042645 321.063575,440.158496 281.118,427.179392 C275.083243,425.218581 269.264156,423.101458 263.717959,420.869264 Z" id="Triangle-1" stroke-width="0.99047619" fill="#000000" sketch:type="MSShapeGroup"></path>
            <path d="M272.40684,495.238095 C409.16307,495.238095 520.025887,384.375278 520.025887,247.619048 C520.025887,110.862817 409.16307,0 272.40684,0 C135.650609,0 24.787792,110.862817 24.787792,247.619048 C24.787792,384.375278 135.650609,495.238095 272.40684,495.238095 Z" id="Oval-1" stroke-width="24.7619048" sketch:type="MSShapeGroup"></path>
        </g>
    </g>
</svg>