<?xml version="1.0" encoding="UTF-8" standalone="no"?>
<svg width="516px" height="516px" viewBox="0 0 516 516" version="1.1" xmlns="http://www.w3.org/2000/svg" xmlns:xlink="http://www.w3.org/1999/xlink" xmlns:sketch="http://www.bohemiancoding.com/sketch/ns">
    <title>Shepherd Dog Logo</title>
    <description>Created with Sketch (http://www.bohemiancoding.com/sketch)</description>
    <defs>
        <path id="path-1" d="M194.703208,258.71859 L187.131519,200.20531 L259.95321,258.71859 L194.703208,258.71859 Z"></path>
    </defs>
    <g id="Page-1" stroke="none" stroke-width="1" fill="none" fill-rule="evenodd" sketch:type="MSPage">
        <path d="M170.382965,62.9056472 C176.174186,56.4273547 189.206421,53.775062 189.206421,53.775062 C189.206421,53.775062 197.697792,63.4791077 197.534878,71.3840302 L193.674057,258.71859 L10,258 C10,258 113.499647,126.537601 170.382965,62.9056472 Z" id="Triangle-1" stroke="#000000" fill="#000000" sketch:type="MSShapeGroup"></path>
        <g id="Triangle-1">
            <use stroke="#000000" stroke-width="1" fill="#000000" fill-rule="evenodd" sketch:type="MSShapeGroup" xlink:href="#path-1"></use>
            <use stroke="none" fill="none" xlink:href="#path-1"></use>
        </g>
        <path d="M259.953196,258.71859 L440.541972,314.248568 L417.882807,409.352928 L259.953196,258.71859 Z" id="Triangle-1" stroke="#000000" fill="#000000" sketch:type="MSShapeGroup"></path>
        <path d="M403.692538,419.114779 L272.605119,387.53059 L253.567035,443.943199 L403.692538,419.114779 Z" id="Triangle-1" stroke="#000000" fill="#000000" sketch:type="MSShapeGroup"></path>
        <path d="M150.563991,485.288971 L264.52682,439.091453 L206.563991,510.322855 L150.563991,485.288971 Z" id="Triangle-1" stroke="#000000" fill="#000000" sketch:type="MSShapeGroup"></path>
        <circle id="Oval-1" stroke="#000000" stroke-width="15" sketch:type="MSShapeGroup" cx="258" cy="258" r="250"></circle>
        <path d="M55.3476562,391.652344 C5.51171849,317.054688 16.1132813,253.589844 16.1132813,253.589844 L260.910156,258.949219 L418.352708,406.895615 C418.352708,406.895615 418.352708,419.620865 398.41359,419.620865 C378.474473,419.620867 271.445313,391.652344 271.445313,391.652344 L260.910157,442.581161 L165.554686,482.355469 C165.554686,482.355469 105.183583,466.250002 55.3476562,391.652344 Z" id="Path-6" stroke="#000000" fill="#000000" sketch:type="MSShapeGroup"></path>
    </g>
</svg>