<svg width="550" height="550" viewBox="0 0 550 550" xmlns="http://www.w3.org/2000/svg" xmlns:xlink="http://www.w3.org/1999/xlink"><title>Shepherd Dog Logo</title><defs><path id="a" d="M244.49 271.53l-40.495-83.615s27.47 12.837 44.17 20.123c16.7 7.286 34.19 21.946 37.12 22.444 8.598 1.46 18.9 6.603 20.836 13.51 6.24 22.25 26.406 22.508 36.204 27.537 9.797 5.026 12.365 8.12 12.365 8.12l-110.2-8.12z"/></defs><g fill="none" fill-rule="evenodd"><path d="M273.026 524c138.07 0 250-111.93 250-250s-111.93-250-250-250-250 111.93-250 250 111.93 250 250 250z" stroke="#000" stroke-width="25"/><path d="M151.258 479.335c-31.013-16.083-36.65-22.803-36.65-22.803s95.16-12.47 102.362-14.402c7.203-1.932 43.565 4.638 43.565 4.638s-19.16-1.742-34.202 12.438c-10.02 9.445-35.67 37.37-34.485 41.975.465 1.814-9.578-5.76-40.59-21.843zm59.987-404.003c11.965-8.836 11.594 1.152 11.594 1.152s-3.098 18.74-5.208 45.166c-3.52 44.085 38.853 150.088 42.17 173.696.406 2.888-28.738 6.742-28.738 6.742l-202.86-15.674S132.12 133.768 211.243 75.332z" id="Triangle-1" stroke="#000" fill="#000"/><path d="M51.677 361.292c-25.68-64.045-19.714-79.606-19.664-79.843.05-.24 44.593-37.37 44.593-37.37l183.69 24.395 133.05 161.535s-7.864 27.613-26.9 23.565c-19.033-4.048-108.477-48.41-108.477-48.41l-21.7 41.88-97.727 22.847s-54.375-27.568-86.868-108.6z" stroke="#000" fill="#000"/><g id="Triangle-1" transform="translate(-2 24)"><use stroke="#000" fill="#000" transform="rotate(18 279.219 233.827)" xlink:href="#a"/><use xlink:href="#a"/></g><path d="M349.287 460.25L233.19 391.776l-34.673 48.372 150.77 20.1z" stroke="#000" fill="#000"/><path d="M271.01 269.782L424.238 390.15l-58.744 63.886-94.484-184.254z" stroke="#000" fill="#000" stroke-width="1.001"/><path d="M400.732 359.215c-3.24-2.33-33.91-17.38-44.34-22.162-15.092-11.372 16.5 20.668 22.09 30.07 2.573 4.326 4.954 7.864 4.954 7.864l57.955 26.107s-31.67-35.417-40.656-41.88zm-40.87 78.4s-44.447-25.41-32.063-26.764c1.454.88 48.45-35.24 78.74-33.02 7.46.55 35.003 21.57 36.11 24.977 5.597 17.227-75.484 60.297-75.484 60.297l-7.306-25.486zm-78.042 17.67c46.68 15.167 88.46 15.327 93.325.358 4.864-14.97-29.033-39.398-75.71-54.565-46.678-15.166-88.46-15.327-93.324-.358-4.86 14.97 29.036 39.4 75.71 54.565z" stroke="#000" fill="#000"/></g></svg>