<?xml version="1.0" encoding="UTF-8"?>
<svg width="528px" height="526px" viewBox="0 0 528 526" version="1.1" xmlns="http://www.w3.org/2000/svg" xmlns:xlink="http://www.w3.org/1999/xlink" xmlns:sketch="http://www.bohemiancoding.com/sketch/ns">
    <title>Logo for Site 1</title>
    <description>Created with Sketch (http://www.bohemiancoding.com/sketch)</description>
    <defs></defs>
    <g id="Page-1" stroke="none" stroke-width="1" fill="none" fill-rule="evenodd" sketch:type="MSPage">
        <g id="Triangle-1-+-Oval-1" sketch:type="MSLayerGroup" transform="translate(-11.000000, 13.000000)" stroke="#000000">
            <path d="M266.25371,424.916083 L253.651246,423.232501 C246.718415,424.252693 236.862835,427.171346 228.330426,435.212238 C218.311195,444.654303 192.659827,472.573129 193.842641,477.176786 C194.307719,478.986923 184.267176,471.413618 153.260829,455.327077 C122.254478,439.240537 116.61779,432.520805 116.61779,432.520805 C116.61779,432.520805 118.025092,432.336593 120.510352,432.009503 L120.510352,432.009503 C101.708359,416.547507 73.5745011,386.968155 53.6560169,337.309892 C35.5944888,292.281175 33.1786081,271.216193 33.3540735,262.593799 L30.1736236,262.346705 C30.1736236,262.346705 134.15218,109.74829 213.301714,51.3468465 C225.269519,42.5162567 224.894352,52.503803 224.894352,52.503803 C224.894352,52.503803 221.791679,71.2415326 219.670856,97.6662256 C218.136313,116.786096 225.22981,147.557448 234.025415,178.202605 C241.373538,184.988068 250.642239,193.484846 257.654617,199.704093 C271.28661,211.794248 283.390058,231.141131 286.021533,232.519689 C293.747578,236.567155 301.957007,244.641112 301.663724,251.80741 C301.226711,262.485741 305.077548,269.610966 310.111545,274.958297 L358.926041,313.300128 L358.926041,313.300128 C369.808211,318.32157 399.544814,332.92754 402.730379,335.218805 C411.253097,341.348898 440.191261,373.538326 443.129544,376.815498 C443.98117,377.698427 444.5186,378.385214 444.654883,378.804652 C449.496034,393.704186 389.500294,427.934507 373.195583,436.914515 C360.82636,446.293055 324.150725,444.39079 283.821058,431.286886 C277.728274,429.307221 271.853234,427.169742 266.253709,424.916084 Z" id="Triangle-1" fill="#000000" sketch:type="MSShapeGroup"></path>
            <path d="M275.026136,500 C413.09733,500 525.026136,388.071194 525.026136,250 C525.026136,111.928806 413.09733,0 275.026136,0 C136.954942,0 25.0261362,111.928806 25.0261362,250 C25.0261362,388.071194 136.954942,500 275.026136,500 Z" id="Oval-1" stroke-width="25" sketch:type="MSShapeGroup"></path>
        </g>
    </g>
</svg>