<?xml version="1.0" encoding="UTF-8"?>
<svg width="270px" height="46px" viewBox="0 0 270 46" version="1.1" xmlns="http://www.w3.org/2000/svg" xmlns:xlink="http://www.w3.org/1999/xlink" xmlns:sketch="http://www.bohemiancoding.com/sketch/ns">
    <title>logo_text</title>
    <description>Created with Sketch (http://www.bohemiancoding.com/sketch)</description>
    <defs></defs>
    <g id="Page-1" stroke="none" stroke-width="1" fill="none" fill-rule="evenodd" sketch:type="MSPage">
        <g id="logo_text" sketch:type="MSLayerGroup" transform="translate(-2.000000, -8.000000)" fill="#000000">
            <g id="Page-1" sketch:type="MSShapeGroup">
                <path d="M21.486273,16.1826999 L17.647988,18.4572392 C16.9304214,17.2116519 16.2467125,16.3993246 15.5968409,16.0202328 C14.9198913,15.5869851 14.0466394,15.3703644 12.977059,15.3703644 C11.6637768,15.3703644 10.5739043,15.7426811 9.7074088,16.4873257 C8.84091331,17.2184313 8.40767206,18.1390689 8.40767206,19.2492663 C8.40767206,20.7791724 9.54493033,22.0112022 11.819481,22.9453926 L14.9469725,24.224821 C17.4923031,25.2537844 19.3538866,26.5095071 20.5317789,27.9920267 C21.7096712,29.4745463 22.2986085,31.2921288 22.2986085,33.4448285 C22.2986085,36.3286338 21.3373545,38.7114607 19.4148176,40.5933806 C17.4787417,42.4888395 15.0756067,43.4365547 12.2053404,43.4365547 C9.48400294,43.4365547 7.23656396,42.6309968 5.462956,41.0198567 C3.71642602,39.4087167 2.6265535,37.1409695 2.19330575,34.2165472 L6.98608499,33.1605111 C7.20270887,35.001814 7.58179496,36.2744602 8.12335464,36.9784878 C9.09816208,38.332387 10.5197349,39.0093264 12.3881158,39.0093264 C13.863866,39.0093264 15.0891264,38.5151606 16.0639338,37.5268142 C17.0387412,36.5384678 17.5261376,35.2861298 17.5261376,33.7697627 C17.5261376,33.1605081 17.4415202,32.602033 17.2722828,32.0943208 C17.1030454,31.5866086 16.839039,31.1195204 16.4802557,30.6930421 C16.1214724,30.2665639 15.6577689,29.8671696 15.0891313,29.4948473 C14.5204936,29.122525 13.8435541,28.7671318 13.0582926,28.428657 L10.032343,27.169537 C5.74048249,25.3553121 3.59458443,22.7017095 3.59458443,19.2086495 C3.59458443,16.8528649 4.4949139,14.8829711 6.29559985,13.298909 C8.0962858,11.7013079 10.3369554,10.9025194 13.0176758,10.9025194 C16.6325867,10.9025194 19.4554242,12.6625619 21.486273,16.1826999 Z M27.1320045,8.56705491 L31.7013915,8.56705491 L31.7013915,24.7325307 C33.3260706,23.2703195 35.1199601,22.5392249 37.083114,22.5392249 C39.3170476,22.5392249 41.1041678,23.2635501 42.444528,24.7122223 C43.5818034,25.9713485 44.1504325,27.9818587 44.1504325,30.7438131 L44.1504325,42.8679199 L39.5810455,42.8679199 L39.5810455,31.1702892 C39.5810455,29.5862271 39.3001156,28.4388148 38.7382475,27.7280177 C38.1763793,27.0172206 37.2726651,26.6618274 36.0270778,26.6618274 C34.4294768,26.6618274 33.3057573,27.1559932 32.6558857,28.1443396 C32.019553,29.146225 31.7013915,30.8656512 31.7013915,33.3026698 L31.7013915,42.8679199 L27.1320045,42.8679199 L27.1320045,8.56705491 Z M67.9518616,34.0540801 L53.7766077,34.0540801 C53.8984587,35.6787592 54.4264714,36.9717135 55.3606619,37.932982 C56.2948524,38.8807114 57.4930352,39.354569 58.9552463,39.354569 C60.0925217,39.354569 61.0334675,39.0837932 61.7781121,38.5422336 C62.5092176,38.0006739 63.3418532,36.9988035 64.2760436,35.5365923 L68.1346371,37.6892813 C67.5389214,38.7047057 66.9093677,39.5745729 66.2459571,40.298909 C65.5825465,41.0232451 64.8717601,41.6189518 64.1135765,42.086047 C63.355393,42.5531422 62.5362962,42.8949967 61.6562618,43.1116205 C60.7762273,43.3282444 59.8217426,43.4365547 58.7927792,43.4365547 C55.841279,43.4365547 53.4719909,42.4888395 51.6848439,40.5933806 C49.897697,38.6843827 49.0041369,36.1526292 49.0041369,32.998044 C49.0041369,29.8705368 49.8706194,27.3387833 51.6036104,25.4027074 C53.3501404,23.4937095 55.6652733,22.5392249 58.5490786,22.5392249 C61.4599619,22.5392249 63.761556,23.4666319 65.45393,25.3214739 C67.1327651,27.1627768 67.97217,29.7148385 67.97217,32.9777356 L67.9518616,34.0540801 Z M63.2606243,30.317337 C62.6242917,27.8803184 61.0876391,26.6618274 58.6506205,26.6618274 C58.0955219,26.6618274 57.5742785,26.7464448 57.0868748,26.9156822 C56.599471,27.0849196 56.1560757,27.3286178 55.7566754,27.6467841 C55.3572752,27.9649504 55.0154208,28.3474212 54.7311019,28.794208 C54.4467831,29.2409947 54.2301625,29.7486993 54.0812335,30.317337 L63.2606243,30.317337 Z M77.5171117,53.6313648 L72.9477247,53.6313648 L72.9477247,23.0875513 L77.5171117,23.0875513 L77.5171117,25.2402403 C79.3177976,23.4395544 81.3621548,22.5392249 83.6502445,22.5392249 C86.3715819,22.5392249 88.6122514,23.5410953 90.3723204,25.5448661 C92.1594674,27.535098 93.0530275,30.0465433 93.0530275,33.0792776 C93.0530275,36.0443168 92.1662368,38.5151458 90.3926288,40.4918387 C88.6325598,42.4549925 86.4121984,43.4365547 83.731478,43.4365547 C81.4163103,43.4365547 79.3448756,42.5091477 77.5171117,40.6543058 L77.5171117,53.6313648 Z M88.3820985,33.0995859 C88.3820985,31.204127 87.8676246,29.6607051 86.8386612,28.4692738 C85.7961588,27.2643035 84.4828962,26.6618274 82.8988341,26.6618274 C81.2199991,26.6618274 79.8593508,27.2439953 78.8168484,28.4083486 C77.774346,29.572702 77.2531027,31.1025851 77.2531027,32.998044 C77.2531027,34.8528859 77.774346,36.3827691 78.8168484,37.5877394 C79.8458118,38.7656317 81.1996907,39.354569 82.8785258,39.354569 C84.4625878,39.354569 85.769081,38.7588623 86.7980444,37.567431 C87.8540858,36.3759997 88.3820985,34.8867329 88.3820985,33.0995859 Z M97.8864235,8.56705491 L102.45581,8.56705491 L102.45581,24.7325307 C104.08049,23.2703195 105.874379,22.5392249 107.837533,22.5392249 C110.071467,22.5392249 111.858587,23.2635501 113.198947,24.7122223 C114.336222,25.9713485 114.904851,27.9818587 114.904851,30.7438131 L114.904851,42.8679199 L110.335464,42.8679199 L110.335464,31.1702892 C110.335464,29.5862271 110.054535,28.4388148 109.492666,27.7280177 C108.930798,27.0172206 108.027084,26.6618274 106.781497,26.6618274 C105.183896,26.6618274 104.060176,27.1559932 103.410305,28.1443396 C102.773972,29.146225 102.45581,30.8656512 102.45581,33.3026698 L102.45581,42.8679199 L97.8864235,42.8679199 L97.8864235,8.56705491 Z M138.706281,34.0540801 L124.531027,34.0540801 C124.652878,35.6787592 125.18089,36.9717135 126.115081,37.932982 C127.049271,38.8807114 128.247454,39.354569 129.709665,39.354569 C130.846941,39.354569 131.787886,39.0837932 132.532531,38.5422336 C133.263637,38.0006739 134.096272,36.9988035 135.030463,35.5365923 L138.889056,37.6892813 C138.29334,38.7047057 137.663787,39.5745729 137.000376,40.298909 C136.336965,41.0232451 135.626179,41.6189518 134.867995,42.086047 C134.109812,42.5531422 133.290715,42.8949967 132.410681,43.1116205 C131.530646,43.3282444 130.576162,43.4365547 129.547198,43.4365547 C126.595698,43.4365547 124.22641,42.4888395 122.439263,40.5933806 C120.652116,38.6843827 119.758556,36.1526292 119.758556,32.998044 C119.758556,29.8705368 120.625038,27.3387833 122.358029,25.4027074 C124.104559,23.4937095 126.419692,22.5392249 129.303498,22.5392249 C132.214381,22.5392249 134.515975,23.4666319 136.208349,25.3214739 C137.887184,27.1627768 138.726589,29.7148385 138.726589,32.9777356 L138.706281,34.0540801 Z M134.015043,30.317337 C133.378711,27.8803184 131.842058,26.6618274 129.405039,26.6618274 C128.849941,26.6618274 128.328697,26.7464448 127.841294,26.9156822 C127.35389,27.0849196 126.910495,27.3286178 126.511094,27.6467841 C126.111694,27.9649504 125.76984,28.3474212 125.485521,28.794208 C125.201202,29.2409947 124.984581,29.7486993 124.835653,30.317337 L134.015043,30.317337 Z M143.702144,23.0875513 L148.271531,23.0875513 L148.271531,24.854381 C149.110948,23.9743465 149.855582,23.3718704 150.505453,23.0469346 C151.168864,22.7084598 151.954114,22.5392249 152.861226,22.5392249 C154.066196,22.5392249 155.325304,22.9318498 156.638586,23.7171113 L154.546822,27.900639 C153.680327,27.2778453 152.834152,26.9664532 152.008274,26.9664532 C149.517099,26.9664532 148.271531,28.8483449 148.271531,32.6121847 L148.271531,42.8679199 L143.702144,42.8679199 L143.702144,23.0875513 Z M173.555472,8.56705491 L178.145167,8.56705491 L178.145167,42.8679199 L173.555472,42.8679199 L173.555472,40.7964645 C171.754786,42.5565334 169.717198,43.4365547 167.442648,43.4365547 C164.734849,43.4365547 162.48741,42.4482231 160.700263,40.4715303 C158.926655,38.4542205 158.039865,35.9360057 158.039865,32.9168105 C158.039865,29.9653102 158.926655,27.5012506 160.700263,25.5245577 C162.460332,23.5343259 164.673924,22.5392249 167.341106,22.5392249 C169.656273,22.5392249 171.727708,23.4869401 173.555472,25.382399 L173.555472,8.56705491 Z M162.710794,32.9168105 C162.710794,34.8122694 163.218498,36.3556913 164.233923,37.5471226 C165.276425,38.7520929 166.589687,39.354569 168.17375,39.354569 C169.866124,39.354569 171.233541,38.7724011 172.276044,37.6080478 C173.318546,36.4030775 173.839789,34.8731943 173.839789,33.0183524 C173.839789,31.1635105 173.318546,29.6336273 172.276044,28.428657 C171.233541,27.2507647 169.879662,26.6618274 168.214366,26.6618274 C166.643843,26.6618274 165.330581,27.2575341 164.274539,28.4489654 C163.232037,29.6539357 162.710794,31.1432025 162.710794,32.9168105 Z M197.62091,42.8679199 L197.62091,11.511771 L204.200827,11.511771 C207.355413,11.511771 209.84655,11.8231631 211.674314,12.4459568 C213.637468,13.0552114 215.417818,14.0909288 217.015419,15.5531399 C220.251238,18.5046402 221.869124,22.3835032 221.869124,27.1898454 C221.869124,32.0097266 220.183544,35.9088979 216.812335,38.8874761 C215.119961,40.3767653 213.34638,41.4124826 211.491538,41.9946593 C209.758547,42.5768359 207.301257,42.8679199 204.119594,42.8679199 L197.62091,42.8679199 Z M202.352764,38.4203832 L204.485145,38.4203832 C206.610767,38.4203832 208.377579,38.1969932 209.785634,37.7502065 C211.193689,37.2763418 212.466335,36.524939 213.60361,35.4959756 C215.932317,33.3703538 217.096653,30.6016714 217.096653,27.1898454 C217.096653,23.7509414 215.945856,20.9619509 213.644227,18.8227902 C211.572761,16.9137923 208.519764,15.9593076 204.485145,15.9593076 L202.352764,15.9593076 L202.352764,38.4203832 Z M226.012035,32.8355769 C226.012035,29.9788496 227.034213,27.548637 229.078601,25.5448661 C231.122989,23.5410953 233.614126,22.5392249 236.552087,22.5392249 C239.503588,22.5392249 242.008263,23.5478647 244.06619,25.5651745 C246.097039,27.5824843 247.112448,30.0600827 247.112448,32.998044 C247.112448,35.9630833 246.09027,38.4474511 244.045882,40.4512219 C241.987955,42.4414537 239.462971,43.4365547 236.470854,43.4365547 C233.505814,43.4365547 231.021447,42.4211455 229.017676,40.3902967 C227.013905,38.3865259 226.012035,35.8683111 226.012035,32.8355769 Z M230.682964,32.9168105 C230.682964,34.8935033 231.210976,36.4572334 232.267018,37.6080478 C233.350137,38.7724011 234.778479,39.354569 236.552087,39.354569 C238.339234,39.354569 239.767576,38.7791705 240.837157,37.6283562 C241.906737,36.4775418 242.441519,34.9408893 242.441519,33.0183524 C242.441519,31.0958155 241.906737,29.559163 240.837157,28.4083486 C239.754037,27.2439953 238.325695,26.6618274 236.552087,26.6618274 C234.805557,26.6618274 233.390754,27.2439953 232.307634,28.4083486 C231.224515,29.572702 230.682964,31.0755075 230.682964,32.9168105 Z M271.076344,42.400827 C271.076344,43.3350175 271.045882,44.1574989 270.984957,44.868296 C270.924031,45.5790931 270.839414,46.2052621 270.731102,46.7468217 C270.406166,48.2361109 269.769843,49.5155264 268.822114,50.5851068 C267.034967,52.6430336 264.577676,53.6719816 261.450169,53.6719816 C258.810066,53.6719816 256.63709,52.9611952 254.931177,51.539601 C253.171108,50.0773898 252.155699,48.0533409 251.884919,45.4673934 L256.474615,45.4673934 C256.650621,46.4422008 256.941705,47.1936036 257.347875,47.7216243 C258.295605,48.9536726 259.676561,49.5696875 261.490786,49.5696875 C264.834917,49.5696875 266.506958,47.5185609 266.506958,43.4162463 L266.506958,40.6543058 C264.692733,42.5091477 262.60099,43.4365547 260.231666,43.4365547 C257.537407,43.4365547 255.330584,42.4617619 253.611132,40.5121471 C251.878141,38.5354542 251.011659,36.0646252 251.011659,33.0995859 C251.011659,30.2157806 251.817216,27.7652598 253.428357,25.74795 C255.161348,23.6087892 257.449403,22.5392249 260.292591,22.5392249 C262.783766,22.5392249 264.8552,23.4666319 266.506958,25.3214739 L266.506958,23.0875513 L271.076344,23.0875513 L271.076344,42.400827 Z M266.689733,33.0183524 C266.689733,31.0958155 266.175259,29.559163 265.146296,28.4083486 C264.103793,27.2304563 262.770222,26.641519 261.145543,26.641519 C259.412552,26.641519 258.045135,27.2846115 257.043249,28.5708157 C256.136137,29.7216301 255.682587,31.2108968 255.682587,33.0386608 C255.682587,34.8393467 256.136137,36.3150747 257.043249,37.4658891 C258.031596,38.7250153 259.399013,39.354569 261.145543,39.354569 C262.892073,39.354569 264.27303,38.7182459 265.288454,37.4455807 C266.222645,36.2947663 266.689733,34.8190383 266.689733,33.0183524 Z" id="Shepherd-Dog"></path>
            </g>
        </g>
    </g>
</svg>