<?xml version="1.0" encoding="UTF-8" standalone="no"?>
<svg width="488px" height="322px" viewBox="0 0 488 322" version="1.1" xmlns="http://www.w3.org/2000/svg" xmlns:xlink="http://www.w3.org/1999/xlink" xmlns:sketch="http://www.bohemiancoding.com/sketch/ns">
    <title>Slice 1</title>
    <description>Created with Sketch (http://www.bohemiancoding.com/sketch)</description>
    <defs>
        <path id="path-1" d="M0,0 L612,0 L612,792 L0,792 L0,0 Z"></path>
        <path id="path-3" d="M0,0 L612,0 L612,792 L0,792 L0,0 Z"></path>
        <path id="path-5" d="M15.17,5.286 C13.338,5.289 11.543,5.129 9.786,4.854 L9.786,4.854 C14.566,10.524 17.451,17.844 17.453,25.841 L17.453,25.841 C17.451,38.282 10.484,49.092 0.241,54.593 L0.241,54.593 C9.662,53.395 18.098,49.074 24.489,42.683 L24.489,42.683 C32.069,35.103 36.75,24.65 36.75,13.091 L36.75,13.091 C36.75,8.331 35.949,3.768 34.486,-0.49 L34.486,-0.49 C28.941,3.159 22.306,5.286 15.17,5.286"></path>
        <linearGradient x1="97.4776126%" y1="21.8682063%" x2="-25.7805544%" y2="77.2396836%" id="linearGradient-7">
            <stop stop-color="#944124" offset="0%"></stop>
            <stop stop-color="#BF6728" offset="100%"></stop>
        </linearGradient>
        <path id="path-8" d="M0.177,19.97 C4.252,22.236 8.934,23.529 13.93,23.529 L13.93,23.529 C17.793,23.529 21.461,22.75 24.81,21.36 L24.81,21.36 C24.334,20.312 23.897,19.259 23.511,18.203 L23.511,18.203 C21.178,11.85 20.365,5.44 20.182,-0.426 L20.182,-0.426 C15.84,8.306 8.815,15.467 0.177,19.97"></path>
        <linearGradient x1="60.0881565%" y1="34.8338844%" x2="44.8646101%" y2="115.192875%" id="linearGradient-10">
            <stop stop-color="#954F1A" offset="0%"></stop>
            <stop stop-color="#BF6728" offset="100%"></stop>
        </linearGradient>
        <path id="path-11" d="M12.062,0.667 C12.248,2.125 12.355,3.607 12.355,5.115 L12.355,5.115 C12.352,15.815 7.57,25.394 0.03,31.843 L0.03,31.843 C1.937,36.899 2.99,42.375 2.99,48.091 L2.99,48.091 C2.99,49.068 2.95,50.032 2.889,50.994 L2.889,50.994 C2.957,51.217 2.999,51.455 2.99,51.702 L2.99,51.702 C2.831,55.601 2.377,60.431 2.378,65.742 L2.378,65.742 C2.375,72.06 3.019,79.016 5.491,85.74 L5.491,85.74 C7.825,92.071 11.744,98.204 18.4,103.556 L18.4,103.556 C25.034,98.221 28.943,92.107 31.271,85.799 L31.271,85.799 C33.739,79.097 34.384,72.159 34.382,65.854 L34.382,65.854 C34.384,60.5 33.92,55.632 33.76,51.702 L33.76,51.702 C33.751,51.505 33.78,51.318 33.823,51.136 L33.823,51.136 C33.758,50.122 33.709,49.1 33.709,48.073 L33.709,48.073 C33.709,42.387 34.752,36.937 36.641,31.905 L36.641,31.905 C29.056,25.452 24.239,15.849 24.239,5.115 L24.239,5.115 C24.239,3.574 24.347,2.062 24.54,0.571 L24.54,0.571 C22.602,0.151 20.592,-0.077 18.523,-0.077 L18.523,-0.077 C16.298,-0.077 14.138,0.181 12.062,0.667"></path>
        <linearGradient x1="48.2193704%" y1="108.134791%" x2="50.0410134%" y2="29.0094013%" id="linearGradient-13">
            <stop stop-color="#944124" offset="0%"></stop>
            <stop stop-color="#643200" offset="100%"></stop>
        </linearGradient>
        <path id="path-14" d="M1.252,18.264 C0.856,19.342 0.406,20.419 -0.083,21.49 L-0.083,21.49 C3.18,22.798 6.736,23.529 10.472,23.529 L10.472,23.529 C15.541,23.529 20.284,22.201 24.398,19.879 L24.398,19.879 C15.86,15.388 8.9,8.313 4.575,-0.323 L4.575,-0.323 C4.393,5.534 3.582,11.925 1.252,18.264"></path>
        <linearGradient x1="44.8609701%" y1="25.5532983%" x2="52.0097083%" y2="112.551594%" id="linearGradient-16">
            <stop stop-color="#954F1A" offset="0%"></stop>
            <stop stop-color="#BF6728" offset="100%"></stop>
        </linearGradient>
        <path id="path-17" d="M-0.05,13.073 C-0.049,24.631 4.634,35.084 12.212,42.666 L12.212,42.666 C18.673,49.125 27.223,53.469 36.767,54.613 L36.767,54.613 L36.761,54.611 C36.143,54.279 35.537,53.927 34.946,53.557 L34.946,53.557 L34.756,53.439 C34.238,53.109 33.729,52.768 33.228,52.411 L33.228,52.411 C33.147,52.352 33.065,52.295 32.982,52.236 L32.982,52.236 C31.886,51.439 30.84,50.573 29.853,49.652 L29.853,49.652 C29.77,49.571 29.685,49.492 29.606,49.411 L29.606,49.411 C29.168,48.996 28.744,48.57 28.333,48.128 L28.333,48.128 L28.173,47.964 C27.71,47.462 27.265,46.949 26.833,46.419 L26.833,46.419 L26.707,46.26 C26.334,45.794 25.975,45.32 25.627,44.837 L25.627,44.837 C25.546,44.72 25.462,44.604 25.379,44.488 L25.379,44.488 C25.01,43.956 24.652,43.42 24.315,42.868 L24.315,42.868 L24.29,42.832 C23.94,42.262 23.614,41.677 23.299,41.085 L23.299,41.085 C23.23,40.954 23.166,40.822 23.098,40.69 L23.098,40.69 C22.851,40.212 22.619,39.729 22.398,39.237 L22.398,39.237 C22.334,39.097 22.269,38.96 22.209,38.82 L22.209,38.82 C21.946,38.212 21.694,37.595 21.469,36.969 L21.469,36.969 L21.396,36.757 C21.199,36.203 21.02,35.642 20.852,35.07 L20.852,35.07 C20.798,34.895 20.748,34.717 20.699,34.537 L20.699,34.537 C20.554,34.01 20.421,33.474 20.302,32.934 L20.302,32.934 C20.274,32.808 20.24,32.686 20.213,32.557 L20.213,32.557 C20.078,31.904 19.963,31.245 19.863,30.58 L19.863,30.58 C19.841,30.417 19.822,30.248 19.801,30.085 L19.801,30.085 C19.734,29.56 19.678,29.031 19.634,28.498 L19.634,28.498 C19.62,28.303 19.603,28.11 19.592,27.913 L19.592,27.913 C19.547,27.229 19.518,26.538 19.518,25.841 L19.518,25.841 C19.518,25.305 19.533,24.777 19.557,24.249 L19.557,24.249 C19.566,24.067 19.583,23.89 19.593,23.71 L19.593,23.71 C19.617,23.366 19.64,23.021 19.673,22.681 L19.673,22.681 C19.694,22.463 19.723,22.248 19.746,22.033 L19.746,22.033 C19.781,21.734 19.818,21.435 19.862,21.136 L19.862,21.136 C19.895,20.904 19.934,20.672 19.971,20.442 L19.971,20.442 C20.018,20.167 20.067,19.893 20.118,19.62 L20.118,19.62 C20.165,19.376 20.216,19.136 20.268,18.893 L20.268,18.893 C20.323,18.639 20.382,18.389 20.442,18.141 L20.442,18.141 C20.504,17.886 20.567,17.633 20.632,17.383 L20.632,17.383 C20.694,17.153 20.76,16.926 20.826,16.702 L20.826,16.702 C20.905,16.435 20.981,16.169 21.068,15.905 L21.068,15.905 C21.128,15.712 21.196,15.523 21.262,15.331 L21.262,15.331 C21.359,15.04 21.457,14.747 21.564,14.462 L21.564,14.462 C21.601,14.361 21.641,14.265 21.68,14.169 L21.68,14.169 C22.143,12.96 22.678,11.786 23.275,10.653 L23.275,10.653 L23.327,10.554 C23.516,10.198 23.713,9.85 23.915,9.503 L23.915,9.503 L24.041,9.284 C24.239,8.949 24.444,8.619 24.653,8.292 L24.653,8.292 C24.703,8.214 24.753,8.137 24.803,8.06 L24.803,8.06 C25.017,7.733 25.236,7.413 25.459,7.091 L25.459,7.091 L25.606,6.886 C25.839,6.559 26.078,6.241 26.321,5.924 L26.321,5.924 L26.44,5.775 C26.7,5.443 26.964,5.114 27.238,4.793 L27.238,4.793 L27.244,4.782 C25.351,5.101 23.413,5.289 21.429,5.286 L21.429,5.286 C14.327,5.286 7.722,3.174 2.195,-0.443 L2.195,-0.443 C0.746,3.796 -0.05,8.338 -0.05,13.073"></path>
        <linearGradient x1="0.000530461472%" y1="50.0008159%" x2="100.00157%" y2="50.0008159%" id="linearGradient-19">
            <stop stop-color="#944124" offset="0%"></stop>
            <stop stop-color="#BF6728" offset="100%"></stop>
        </linearGradient>
        <path id="path-20" d="M0.479,3.115 C0.479,11.665 3.94,19.384 9.544,24.987 L9.544,24.987 C15.152,30.591 22.877,34.049 31.429,34.049 L31.429,34.049 C36.475,34.049 41.223,32.846 45.427,30.715 L45.427,30.715 C45.601,30.623 49.324,28.796 51.124,28.15 L51.124,28.15 C34.804,23.773 20.125,15.402 8.223,4.122 L8.223,4.122 C5.957,2.314 3.41,0.849 0.659,-0.203 L0.659,-0.203 C0.543,0.887 0.479,1.992 0.479,3.115"></path>
        <radialGradient cx="75.1757484%" cy="59.4880638%" fx="75.1757484%" fy="59.4880638%" r="89.3064916%" id="radialGradient-22">
            <stop stop-color="#944124" offset="0%"></stop>
            <stop stop-color="#BF6728" offset="100%"></stop>
        </radialGradient>
        <path id="path-23" d="M42.533,4.122 C30.63,15.402 15.95,23.773 -0.367,28.15 L-0.367,28.15 C1.432,28.796 5.156,30.623 5.328,30.715 L5.328,30.715 C9.53,32.846 14.28,34.049 19.324,34.049 L19.324,34.049 C27.878,34.049 35.602,30.591 41.211,24.987 L41.211,24.987 C46.816,19.384 50.275,11.665 50.276,3.115 L50.276,3.115 C50.276,1.992 50.213,0.887 50.097,-0.203 L50.097,-0.203 C47.345,0.849 44.797,2.314 42.533,4.122"></path>
        <radialGradient cx="24.913611%" cy="65.5523765%" fx="24.913611%" fy="65.5523765%" r="77.8459847%" id="radialGradient-25">
            <stop stop-color="#944124" offset="0%"></stop>
            <stop stop-color="#BF6728" offset="100%"></stop>
        </radialGradient>
        <path id="path-26" d="M-0.312,4.344 C1.613,7.385 3.081,10.737 4.005,14.311 L4.005,14.311 C6.094,13.891 8.252,13.663 10.463,13.663 L10.463,13.663 C12.801,13.663 15.077,13.91 17.277,14.377 L17.277,14.377 C18.14,10.855 19.525,7.539 21.366,4.522 L21.366,4.522 C15.464,1.803 15.324,-0.173 10.335,-0.296 L10.335,-0.296 C5.457,-0.175 5.217,1.717 -0.312,4.344"></path>
        <linearGradient x1="50.0015855%" y1="-29.7926838%" x2="50.0015832%" y2="54.2630709%" id="linearGradient-28">
            <stop stop-color="#944124" offset="0%"></stop>
            <stop stop-color="#643200" offset="100%"></stop>
        </linearGradient>
        <path id="path-29" d="M0,0 L612,0 L612,792 L0,792 L0,0 Z"></path>
    </defs>
    <g id="Page-3" stroke="none" stroke-width="1" fill="none" fill-rule="evenodd" sketch:type="MSPage">
        <g id="Morph_logos_deliver-copy" sketch:type="MSLayerGroup" transform="translate(-64.000000, -103.000000)">
            <g id="Group-353">
                <mask id="mask-2" sketch:name="Clip 351" fill="white">
                    <use xlink:href="#path-1"></use>
                </mask>
                <g id="Clip-351"></g>
                <path d="M553.347,425 L63.057,425 L63.057,102 L553.347,102 L553.347,425 Z" id="Fill-350" fill="#E6F0CE" sketch:type="MSShapeGroup" mask="url(#mask-2)"></path>
            </g>
            <g id="Group-358" transform="translate(63.000000, 45.000000)"></g>
            <g id="Group-397">
                <path d="M433.2012,289.1421 C429.7962,289.1421 427.0332,288.7831 427.0332,292.1871 C427.0332,292.1871 427.0482,306.3481 427.0332,306.7461 C427.0042,307.6261 426.5962,308.1711 426.4192,308.3481 C426.2412,308.5251 425.6392,309.0971 424.8012,309.1351 C424.3062,309.1581 412.1212,309.1451 411.4962,309.1331 C410.8632,309.1181 410.3212,308.8821 409.9052,308.4641 C409.4902,308.0491 409.2262,307.5071 409.2222,306.8471 C409.2152,305.7941 409.2222,292.1871 409.2222,292.1871 C409.2222,288.7831 406.4612,289.1421 403.0552,289.1421 C399.6482,289.1421 396.8872,288.7831 396.8872,292.1871 L396.8872,335.7681 C396.8872,339.1751 399.6482,338.8131 403.0552,338.8131 C406.4612,338.8131 409.2222,339.1751 409.2222,335.7681 L409.2222,320.9871 C409.2222,320.1551 409.7472,319.6611 409.9662,319.4461 C410.1832,319.2251 410.8322,318.8281 411.5222,318.8281 C411.8872,318.8281 420.9602,318.8261 424.8472,318.8231 C425.4062,318.8231 426.0622,319.2251 426.2772,319.4381 C426.4932,319.6531 427.0332,320.2461 427.0332,321.1751 L427.0332,335.7681 C427.0332,339.1751 429.7962,338.8131 433.2012,338.8131 C436.6072,338.8131 439.3692,339.1751 439.3692,335.7681 L439.3692,292.1871 C439.3692,288.7831 436.6072,289.1421 433.2012,289.1421" id="Fill-361" fill="#52341D" sketch:type="MSShapeGroup"></path>
                <path d="M367.9023,314.5728 C366.4493,314.5728 365.0823,314.2058 363.8873,313.5598 C363.8873,313.5598 363.0743,299.4528 363.8873,298.6398 C364.6993,297.8278 366.4493,297.6278 367.9023,297.6278 C372.5833,297.6278 376.3773,301.4198 376.3773,306.0998 C376.3773,310.7788 372.5833,314.5728 367.9023,314.5728 M371.7673,289.1528 C368.8713,289.1528 360.7013,289.2278 357.7183,289.2278 C354.3123,289.2278 351.5503,288.8638 351.5503,292.2708 L351.5503,335.8548 C351.5503,339.2598 354.3123,338.8968 357.7183,338.8968 C361.1263,338.8968 363.8873,339.2598 363.8873,335.8548 L363.8873,321.1008 C366.2423,322.3418 368.9203,323.0428 371.7673,323.0428 C381.1253,323.0428 388.7133,315.4558 388.7133,306.0998 C388.7133,296.7418 381.1253,289.1528 371.7673,289.1528" id="Fill-363" fill="#52341D" sketch:type="MSShapeGroup"></path>
                <path d="M314.2568,313.4946 C314.2568,313.4946 313.4448,299.3896 314.2568,298.5746 C315.0688,297.7646 316.8208,297.5616 318.2748,297.5616 C322.9548,297.5616 326.7468,301.3566 326.7468,306.0346 C326.7468,310.7146 322.9548,314.5096 318.2748,314.5096 C316.8208,314.5096 315.4498,314.1426 314.2568,313.4946 M343.4488,334.9636 L331.9358,319.8556 C336.2578,316.7826 339.0818,311.7406 339.0818,306.0346 C339.0818,296.6756 331.4958,289.0886 322.1368,289.0886 C319.2408,289.0886 311.0698,289.1626 308.0888,289.1626 C304.6838,289.1626 301.9218,288.8006 301.9218,292.2076 L301.9218,335.7886 C301.9218,339.1956 304.6838,338.8306 308.0888,338.8306 C311.4978,338.8306 314.2568,339.1956 314.2568,335.7886 L314.2568,321.0356 C316.2408,322.0786 318.4588,322.7396 320.8088,322.9216 C323.4818,327.1766 328.3638,334.9326 329.3818,336.4616 C330.9878,338.8666 332.7998,338.8516 333.8628,338.8366 C335.0118,338.8216 339.1058,338.8666 340.4448,338.8666 C343.6128,338.8666 345.8378,337.9246 343.4488,334.9636" id="Fill-365" fill="#52341D" sketch:type="MSShapeGroup"></path>
                <path d="M237.9678,336.186 C237.0158,330.007 231.1818,291.218 231.1148,290.851 C231.0448,290.466 230.7478,289.962 230.4628,289.714 C230.1438,289.438 229.6648,289.12 228.8698,289.12 C226.2258,289.12 219.9268,289.129 219.5228,289.129 C219.0298,289.129 218.5078,289.312 218.1618,289.582 C217.9298,289.765 217.6408,290.01 217.4308,290.527 C217.3148,290.813 209.7558,309.616 207.7808,314.527 L207.7808,314.459 L207.3148,315.692 L206.8438,314.459 L206.8438,314.527 C204.8708,309.616 197.3128,290.813 197.1968,290.527 C196.9868,290.01 196.6948,289.765 196.4628,289.582 C196.1198,289.312 195.5958,289.129 195.1028,289.129 C194.6978,289.129 188.4008,289.12 185.7538,289.12 C184.9598,289.12 184.4818,289.438 184.1638,289.714 C183.8748,289.962 183.5828,290.466 183.5118,290.851 C183.4438,291.218 177.6098,330.007 176.6568,336.186 C176.5128,337.12 176.9958,337.849 177.1148,337.971 C177.2388,338.092 177.7748,338.831 178.8978,338.831 L187.1828,338.831 C188.0888,338.831 188.6638,338.292 188.7798,338.178 C188.8938,338.064 189.3038,337.697 189.4238,336.902 C189.4568,336.685 192.8078,310.219 192.8078,310.219 L192.9378,310.219 C192.9378,310.219 204.1508,337.13 204.2468,337.368 C204.3968,337.738 204.7578,338.15 204.9028,338.292 C205.0438,338.436 205.5958,338.836 206.3728,338.831 L206.8438,338.831 L207.3148,338.831 L207.7808,338.831 L208.2538,338.831 C209.0298,338.836 209.5798,338.436 209.7248,338.292 C209.8668,338.15 210.2288,337.738 210.3778,337.368 C210.4758,337.13 221.6858,310.219 221.6858,310.219 L221.8188,310.219 C221.8188,310.219 225.1688,336.685 225.1988,336.902 C225.3208,337.697 225.7338,338.064 225.8478,338.178 C225.9608,338.292 226.5388,338.831 227.4428,338.831 L235.7288,338.831 C236.8518,338.831 237.3868,338.092 237.5078,337.971 C237.6308,337.849 238.1148,337.12 237.9678,336.186" id="Fill-367" fill="#52341D" sketch:type="MSShapeGroup"></path>
                <path d="M256.0156,313.6084 C256.0156,321.6534 261.5176,327.9744 268.7596,327.9744 C276.0016,327.9744 281.5056,321.6534 281.5056,313.6084 C281.5056,307.1714 276.0016,300.8524 268.7596,300.8524 C261.5176,300.8524 256.0156,307.1714 256.0156,313.6084 M294.1326,313.5474 C294.1326,328.6474 283.7406,339.7344 268.7596,339.7344 C253.7796,339.7344 243.3866,328.6474 243.3866,313.5474 C243.3866,299.4324 255.3286,289.0884 268.7596,289.0884 C282.1936,289.0884 294.1326,299.4324 294.1326,313.5474" id="Fill-369" fill="#52341D" sketch:type="MSShapeGroup"></path>
                <path d="M178.667,358.5054 L181.313,358.5054 L181.313,359.4974 L177.599,359.4974 L177.599,349.9064 L178.667,349.9064 L178.667,358.5054 Z" id="Fill-371" fill="#52341D" sketch:type="MSShapeGroup"></path>
                <mask id="mask-4" sketch:name="Clip 374" fill="white">
                    <use xlink:href="#path-3"></use>
                </mask>
                <g id="Clip-374"></g>
                <path d="M191.096,359.498 L190.029,359.498 L190.029,349.907 L191.096,349.907 L191.096,359.498 Z" id="Fill-373" fill="#52341D" sketch:type="MSShapeGroup" mask="url(#mask-4)"></path>
                <path d="M205.0264,351.7744 C204.6464,351.1134 204.1884,350.7314 203.3734,350.7314 C202.5214,350.7314 201.7844,351.3414 201.7844,352.2224 C201.7844,353.0504 202.6354,353.4294 203.2834,353.7234 L203.9204,354.0024 C205.1674,354.5484 206.2234,355.1714 206.2234,356.7004 C206.2234,358.3784 204.8754,359.6644 203.2094,359.6644 C201.6704,359.6644 200.5244,358.6704 200.2174,357.1844 L201.2624,356.8904 C201.4024,357.8704 202.1524,358.6704 203.1824,358.6704 C204.2144,358.6704 205.1554,357.8824 205.1554,356.8014 C205.1554,355.6804 204.2774,355.3004 203.3864,354.8934 L202.8014,354.6374 C201.6814,354.1284 200.7154,353.5564 200.7154,352.1824 C200.7154,350.6954 201.9734,349.7414 203.3984,349.7414 C204.4684,349.7414 205.3714,350.2854 205.8804,351.2274 L205.0264,351.7744 Z" id="Fill-375" fill="#52341D" sketch:type="MSShapeGroup" mask="url(#mask-4)"></path>
                <path d="M217.9658,359.4976 L216.8968,359.4976 L216.8968,350.8986 L214.5828,350.8986 L214.5828,349.9066 L220.3068,349.9066 L220.3068,350.8986 L217.9658,350.8986 L217.9658,359.4976 Z" id="Fill-376" fill="#52341D" sketch:type="MSShapeGroup" mask="url(#mask-4)"></path>
                <path d="M229.0342,349.9063 L234.0092,349.9063 L234.0092,350.8983 L230.1022,350.8983 L230.1022,353.7493 L233.8942,353.7493 L233.8942,354.7393 L230.1022,354.7393 L230.1022,358.5053 L234.0092,358.5053 L234.0092,359.4973 L229.0342,359.4973 L229.0342,349.9063 Z" id="Fill-377" fill="#52341D" sketch:type="MSShapeGroup" mask="url(#mask-4)"></path>
                <path d="M243.5254,349.4985 L251.0064,357.3355 L251.0064,349.9065 L252.0754,349.9065 L252.0754,359.9285 L244.5944,352.1055 L244.5944,359.4975 L243.5254,359.4975 L243.5254,349.4985 Z" id="Fill-378" fill="#52341D" sketch:type="MSShapeGroup" mask="url(#mask-4)"></path>
                <path d="M275.8027,359.4976 L274.7347,359.4976 L274.7347,350.8986 L272.4187,350.8986 L272.4187,349.9066 L278.1437,349.9066 L278.1437,350.8986 L275.8027,350.8986 L275.8027,359.4976 Z" id="Fill-379" fill="#52341D" sketch:type="MSShapeGroup" mask="url(#mask-4)"></path>
                <path d="M287.457,354.7031 C287.457,356.8621 289.211,358.6701 291.389,358.6701 C293.564,358.6701 295.318,356.8621 295.318,354.7031 C295.318,352.5261 293.588,350.7311 291.389,350.7311 C289.186,350.7311 287.457,352.5261 287.457,354.7031 M296.388,354.7161 C296.388,357.4751 294.122,359.6641 291.389,359.6641 C288.651,359.6641 286.389,357.4751 286.389,354.7161 C286.389,351.9671 288.651,349.7421 291.389,349.7421 C294.122,349.7421 296.388,351.9671 296.388,354.7161" id="Fill-380" fill="#52341D" sketch:type="MSShapeGroup" mask="url(#mask-4)"></path>
                <path d="M319.5684,359.4976 L318.5004,359.4976 L318.5004,350.8986 L316.1834,350.8986 L316.1834,349.9066 L321.9094,349.9066 L321.9094,350.8986 L319.5684,350.8986 L319.5684,359.4976 Z" id="Fill-381" fill="#52341D" sketch:type="MSShapeGroup" mask="url(#mask-4)"></path>
                <path d="M336.666,353.7969 L336.666,349.9059 L337.736,349.9059 L337.736,359.4979 L336.666,359.4979 L336.666,354.7919 L331.757,354.7919 L331.757,359.4979 L330.686,359.4979 L330.686,349.9059 L331.757,349.9059 L331.757,353.7969 L336.666,353.7969 Z" id="Fill-382" fill="#52341D" sketch:type="MSShapeGroup" mask="url(#mask-4)"></path>
                <path d="M347.3535,349.9063 L352.3285,349.9063 L352.3285,350.8983 L348.4215,350.8983 L348.4215,353.7493 L352.2135,353.7493 L352.2135,354.7393 L348.4215,354.7393 L348.4215,358.5053 L352.3285,358.5053 L352.3285,359.4973 L347.3535,359.4973 L347.3535,349.9063 Z" id="Fill-383" fill="#52341D" sketch:type="MSShapeGroup" mask="url(#mask-4)"></path>
                <path d="M373.332,349.9063 L378.307,349.9063 L378.307,350.8983 L374.402,350.8983 L374.402,353.7493 L378.191,353.7493 L378.191,354.7393 L374.402,354.7393 L374.402,358.5053 L378.307,358.5053 L378.307,359.4973 L373.332,359.4973 L373.332,349.9063 Z" id="Fill-384" fill="#52341D" sketch:type="MSShapeGroup" mask="url(#mask-4)"></path>
                <path d="M391.2725,351.9414 L389.6305,355.7844 L392.8745,355.7844 L391.2725,351.9414 Z M389.1995,356.7764 L388.0405,359.4974 L386.8695,359.4974 L391.2975,349.4454 L395.6095,359.4974 L394.4265,359.4974 L393.2945,356.7764 L389.1995,356.7764 Z" id="Fill-385" fill="#52341D" sketch:type="MSShapeGroup" mask="url(#mask-4)"></path>
                <path d="M405.3545,354.3462 L405.6865,354.3462 C406.8935,354.3462 408.1145,354.1182 408.1145,352.6272 C408.1145,351.0502 406.9595,350.8982 405.6735,350.8982 L405.3545,350.8982 L405.3545,354.3462 Z M405.3545,359.4972 L404.2875,359.4972 L404.2875,349.9062 L405.6735,349.9062 C407.4925,349.9062 409.1845,350.3872 409.1845,352.5512 C409.1845,354.0272 408.2555,355.0702 406.7805,355.1972 L409.8335,359.4972 L408.5215,359.4972 L405.6225,355.2882 L405.3545,355.2882 L405.3545,359.4972 Z" id="Fill-386" fill="#52341D" sketch:type="MSShapeGroup" mask="url(#mask-4)"></path>
                <path d="M421.1074,359.4976 L420.0394,359.4976 L420.0394,350.8986 L417.7254,350.8986 L417.7254,349.9066 L423.4484,349.9066 L423.4484,350.8986 L421.1074,350.8986 L421.1074,359.4976 Z" id="Fill-387" fill="#52341D" sketch:type="MSShapeGroup" mask="url(#mask-4)"></path>
                <path d="M438.207,353.7969 L438.207,349.9059 L439.275,349.9059 L439.275,359.4979 L438.207,359.4979 L438.207,354.7919 L433.297,354.7919 L433.297,359.4979 L432.228,359.4979 L432.228,349.9059 L433.297,349.9059 L433.297,353.7969 L438.207,353.7969 Z" id="Fill-388" fill="#52341D" sketch:type="MSShapeGroup" mask="url(#mask-4)"></path>
                <path d="M366.627,144.938 C361.742,142.37 356.172,140.916 350.279,140.916 L350.241,140.916 L350.241,140.917 C340.723,140.923 332.068,144.722 325.742,150.876 C324.904,151.692 324.884,153.036 325.701,153.875 C326.517,154.714 327.859,154.732 328.699,153.917 C334.28,148.492 341.879,145.158 350.273,145.156 L350.279,145.156 C355.475,145.157 360.356,146.434 364.653,148.692 C365.69,149.236 366.973,148.839 367.517,147.801 C368.064,146.764 367.663,145.482 366.627,144.938" id="Fill-389" fill="#52341D" sketch:type="MSShapeGroup" mask="url(#mask-4)"></path>
                <path d="M294.5322,150.8765 C288.2072,144.7225 279.5522,140.9235 270.0322,140.9165 L270.0322,140.9155 L269.9952,140.9155 C264.1012,140.9155 258.5302,142.3685 253.6472,144.9385 C252.6122,145.4815 252.2122,146.7655 252.7582,147.8005 C253.3032,148.8385 254.5852,149.2365 255.6222,148.6915 C259.9182,146.4345 264.8002,145.1565 269.9952,145.1555 L270.0002,145.1555 C278.3952,145.1585 285.9942,148.4925 291.5752,153.9175 C292.4162,154.7315 293.7582,154.7145 294.5742,153.8755 C295.3902,153.0355 295.3712,151.6915 294.5322,150.8765" id="Fill-390" fill="#52341D" sketch:type="MSShapeGroup" mask="url(#mask-4)"></path>
                <path d="M237.8359,252.9253 C226.1899,252.9233 216.7549,243.4883 216.7519,231.8413 C216.7549,220.2013 226.1899,210.7693 237.8359,210.7693 C249.4809,210.7693 258.9179,220.2013 258.9189,231.8413 C258.9179,243.4883 249.4809,252.9233 237.8359,252.9253 M257.8999,211.7873 C252.7579,206.6513 245.6789,203.4823 237.8359,203.4793 C229.9939,203.4823 222.9119,206.6513 217.7719,211.7873 C212.6329,216.9263 209.4619,224.0033 209.4619,231.8413 C209.4619,239.6833 212.6329,246.7633 217.7719,251.9073 C222.9119,257.0413 229.9939,260.2163 237.8359,260.2163 C245.6789,260.2163 252.7579,257.0413 257.8999,251.9073 C263.0369,246.7633 266.2109,239.6833 266.2109,231.8413 C266.2109,224.0033 263.0369,216.9263 257.8999,211.7873" id="Fill-391" fill="#9A4123" sketch:type="MSShapeGroup" mask="url(#mask-4)"></path>
                <path d="M237.8359,226.7402 C236.4189,226.7402 235.1579,227.3102 234.2269,228.2332 C233.2999,229.1632 232.7319,230.4242 232.7319,231.8412 C232.7319,233.2572 233.2999,234.5202 234.2269,235.4512 C235.1579,236.3772 236.4189,236.9432 237.8359,236.9462 C239.2519,236.9432 240.5149,236.3772 241.4459,235.4512 C242.3729,234.5202 242.9389,233.2572 242.9399,231.8412 C242.9389,230.4242 242.3729,229.1632 241.4459,228.2332 C240.5149,227.3102 239.2519,226.7402 237.8359,226.7402" id="Fill-392" fill="#632B17" sketch:type="MSShapeGroup" mask="url(#mask-4)"></path>
                <path d="M237.8359,241.1846 C235.2619,241.1846 232.9119,240.1366 231.2299,238.4486 C229.5409,236.7646 228.4909,234.4156 228.4909,231.8416 C228.4919,226.6826 232.6739,222.5026 237.8359,222.5026 C240.4099,222.5026 242.7599,223.5496 244.4429,225.2356 C246.1319,226.9196 247.1819,229.2666 247.1799,231.8416 C247.1799,237.0026 242.9979,241.1846 237.8359,241.1846 M249.7449,219.9386 C246.6909,216.8886 242.4939,215.0076 237.8359,215.0076 C233.1779,215.0076 228.9819,216.8886 225.9259,219.9386 C222.8749,222.9906 220.9939,227.1836 220.9929,231.8416 C220.9939,236.4986 222.8749,240.6966 225.9259,243.7516 C228.9819,246.8016 233.1779,248.6826 237.8359,248.6826 C242.4939,248.6826 246.6909,246.8016 249.7449,243.7516 C252.7969,240.6966 254.6779,236.4986 254.6779,231.8416 C254.6779,227.1836 252.7969,222.9906 249.7449,219.9386" id="Fill-393" fill="#83371D" sketch:type="MSShapeGroup" mask="url(#mask-4)"></path>
                <path d="M381.1318,252.9253 C369.4858,252.9233 360.0518,243.4883 360.0488,231.8413 C360.0518,220.2013 369.4858,210.7693 381.1318,210.7693 C392.7788,210.7693 402.2148,220.2013 402.2158,231.8413 C402.2148,243.4883 392.7788,252.9233 381.1318,252.9253 M401.1968,211.7873 C396.0558,206.6513 388.9758,203.4823 381.1318,203.4793 C373.2908,203.4823 366.2108,206.6513 361.0698,211.7873 C355.9298,216.9263 352.7598,224.0033 352.7598,231.8413 C352.7598,239.6833 355.9298,246.7633 361.0698,251.9073 C366.2108,257.0413 373.2908,260.2163 381.1318,260.2163 C388.9758,260.2163 396.0558,257.0413 401.1968,251.9073 C406.3358,246.7633 409.5088,239.6833 409.5088,231.8413 C409.5088,224.0033 406.3358,216.9263 401.1968,211.7873" id="Fill-394" fill="#9A4123" sketch:type="MSShapeGroup" mask="url(#mask-4)"></path>
                <path d="M381.1318,241.1846 C378.5598,241.1846 376.2088,240.1366 374.5268,238.4486 C372.8388,236.7646 371.7878,234.4156 371.7888,231.8416 C371.7888,226.6826 375.9708,222.5026 381.1318,222.5026 C383.7068,222.5026 386.0568,223.5496 387.7408,225.2356 C389.4288,226.9196 390.4788,229.2666 390.4778,231.8416 C390.4748,237.0026 386.2948,241.1846 381.1318,241.1846 M393.0418,219.9386 C389.9858,216.8886 385.7908,215.0076 381.1318,215.0076 C376.4748,215.0076 372.2778,216.8886 369.2228,219.9386 C366.1718,222.9906 364.2908,227.1836 364.2898,231.8416 C364.2908,236.4986 366.1718,240.6966 369.2228,243.7516 C372.2778,246.8016 376.4748,248.6826 381.1318,248.6826 C385.7908,248.6826 389.9858,246.8016 393.0418,243.7516 C396.0938,240.6966 397.9748,236.4986 397.9748,231.8416 C397.9748,227.1836 396.0938,222.9906 393.0418,219.9386" id="Fill-395" fill="#83371D" sketch:type="MSShapeGroup" mask="url(#mask-4)"></path>
                <path d="M381.1318,226.7402 C379.7168,226.7402 378.4548,227.3102 377.5248,228.2332 C376.5998,229.1632 376.0308,230.4242 376.0308,231.8412 C376.0308,233.2572 376.5998,234.5202 377.5248,235.4512 C378.4548,236.3772 379.7168,236.9432 381.1318,236.9462 C382.5488,236.9432 383.8118,236.3772 384.7418,235.4512 C385.6678,234.5202 386.2358,233.2572 386.2358,231.8412 C386.2358,230.4242 385.6678,229.1632 384.7418,228.2332 C383.8118,227.3102 382.5488,226.7402 381.1318,226.7402" id="Fill-396" fill="#632B17" sketch:type="MSShapeGroup" mask="url(#mask-4)"></path>
            </g>
            <g id="Group-400" transform="translate(253.000000, 206.000000)">
                <mask id="mask-6" sketch:name="Clip 399" fill="white">
                    <use xlink:href="#path-5"></use>
                </mask>
                <g id="Clip-399"></g>
                <path d="M15.17,5.286 C13.338,5.289 11.543,5.129 9.786,4.854 L9.786,4.854 C14.566,10.524 17.451,17.844 17.453,25.841 L17.453,25.841 C17.451,38.282 10.484,49.092 0.241,54.593 L0.241,54.593 C9.662,53.395 18.098,49.074 24.489,42.683 L24.489,42.683 C32.069,35.103 36.75,24.65 36.75,13.091 L36.75,13.091 C36.75,8.331 35.949,3.768 34.486,-0.49 L34.486,-0.49 C28.941,3.159 22.306,5.286 15.17,5.286" id="Fill-398" fill="url(#linearGradient-7)" sketch:type="MSShapeGroup" mask="url(#mask-6)"></path>
            </g>
            <g id="Group-403" transform="translate(269.000000, 240.000000)">
                <mask id="mask-9" sketch:name="Clip 402" fill="white">
                    <use xlink:href="#path-8"></use>
                </mask>
                <g id="Clip-402"></g>
                <path d="M0.177,19.97 C4.252,22.236 8.934,23.529 13.93,23.529 L13.93,23.529 C17.793,23.529 21.461,22.75 24.81,21.36 L24.81,21.36 C24.334,20.312 23.897,19.259 23.511,18.203 L23.511,18.203 C21.178,11.85 20.365,5.44 20.182,-0.426 L20.182,-0.426 C15.84,8.306 8.815,15.467 0.177,19.97" id="Fill-401" fill="url(#linearGradient-10)" sketch:type="MSShapeGroup" mask="url(#mask-9)"></path>
            </g>
            <g id="Group-406" transform="translate(291.000000, 171.000000)">
                <mask id="mask-12" sketch:name="Clip 405" fill="white">
                    <use xlink:href="#path-11"></use>
                </mask>
                <g id="Clip-405"></g>
                <path d="M12.062,0.667 C12.248,2.125 12.355,3.607 12.355,5.115 L12.355,5.115 C12.352,15.815 7.57,25.394 0.03,31.843 L0.03,31.843 C1.937,36.899 2.99,42.375 2.99,48.091 L2.99,48.091 C2.99,49.068 2.95,50.032 2.889,50.994 L2.889,50.994 C2.957,51.217 2.999,51.455 2.99,51.702 L2.99,51.702 C2.831,55.601 2.377,60.431 2.378,65.742 L2.378,65.742 C2.375,72.06 3.019,79.016 5.491,85.74 L5.491,85.74 C7.825,92.071 11.744,98.204 18.4,103.556 L18.4,103.556 C25.034,98.221 28.943,92.107 31.271,85.799 L31.271,85.799 C33.739,79.097 34.384,72.159 34.382,65.854 L34.382,65.854 C34.384,60.5 33.92,55.632 33.76,51.702 L33.76,51.702 C33.751,51.505 33.78,51.318 33.823,51.136 L33.823,51.136 C33.758,50.122 33.709,49.1 33.709,48.073 L33.709,48.073 C33.709,42.387 34.752,36.937 36.641,31.905 L36.641,31.905 C29.056,25.452 24.239,15.849 24.239,5.115 L24.239,5.115 C24.239,3.574 24.347,2.062 24.54,0.571 L24.54,0.571 C22.602,0.151 20.592,-0.077 18.523,-0.077 L18.523,-0.077 C16.298,-0.077 14.138,0.181 12.062,0.667" id="Fill-404" fill="url(#linearGradient-13)" sketch:type="MSShapeGroup" mask="url(#mask-12)"></path>
            </g>
            <g id="Group-409" transform="translate(325.000000, 240.000000)">
                <mask id="mask-15" sketch:name="Clip 408" fill="white">
                    <use xlink:href="#path-14"></use>
                </mask>
                <g id="Clip-408"></g>
                <path d="M1.252,18.264 C0.856,19.342 0.406,20.419 -0.083,21.49 L-0.083,21.49 C3.18,22.798 6.736,23.529 10.472,23.529 L10.472,23.529 C15.541,23.529 20.284,22.201 24.398,19.879 L24.398,19.879 C15.86,15.388 8.9,8.313 4.575,-0.323 L4.575,-0.323 C4.393,5.534 3.582,11.925 1.252,18.264" id="Fill-407" fill="url(#linearGradient-16)" sketch:type="MSShapeGroup" mask="url(#mask-15)"></path>
            </g>
            <g id="Group-412" transform="translate(329.000000, 206.000000)">
                <mask id="mask-18" sketch:name="Clip 411" fill="white">
                    <use xlink:href="#path-17"></use>
                </mask>
                <g id="Clip-411"></g>
                <path d="M-0.05,13.073 C-0.049,24.631 4.634,35.084 12.212,42.666 L12.212,42.666 C18.673,49.125 27.223,53.469 36.767,54.613 L36.767,54.613 L36.761,54.611 C36.143,54.279 35.537,53.927 34.946,53.557 L34.946,53.557 L34.756,53.439 C34.238,53.109 33.729,52.768 33.228,52.411 L33.228,52.411 C33.147,52.352 33.065,52.295 32.982,52.236 L32.982,52.236 C31.886,51.439 30.84,50.573 29.853,49.652 L29.853,49.652 C29.77,49.571 29.685,49.492 29.606,49.411 L29.606,49.411 C29.168,48.996 28.744,48.57 28.333,48.128 L28.333,48.128 L28.173,47.964 C27.71,47.462 27.265,46.949 26.833,46.419 L26.833,46.419 L26.707,46.26 C26.334,45.794 25.975,45.32 25.627,44.837 L25.627,44.837 C25.546,44.72 25.462,44.604 25.379,44.488 L25.379,44.488 C25.01,43.956 24.652,43.42 24.315,42.868 L24.315,42.868 L24.29,42.832 C23.94,42.262 23.614,41.677 23.299,41.085 L23.299,41.085 C23.23,40.954 23.166,40.822 23.098,40.69 L23.098,40.69 C22.851,40.212 22.619,39.729 22.398,39.237 L22.398,39.237 C22.334,39.097 22.269,38.96 22.209,38.82 L22.209,38.82 C21.946,38.212 21.694,37.595 21.469,36.969 L21.469,36.969 L21.396,36.757 C21.199,36.203 21.02,35.642 20.852,35.07 L20.852,35.07 C20.798,34.895 20.748,34.717 20.699,34.537 L20.699,34.537 C20.554,34.01 20.421,33.474 20.302,32.934 L20.302,32.934 C20.274,32.808 20.24,32.686 20.213,32.557 L20.213,32.557 C20.078,31.904 19.963,31.245 19.863,30.58 L19.863,30.58 C19.841,30.417 19.822,30.248 19.801,30.085 L19.801,30.085 C19.734,29.56 19.678,29.031 19.634,28.498 L19.634,28.498 C19.62,28.303 19.603,28.11 19.592,27.913 L19.592,27.913 C19.547,27.229 19.518,26.538 19.518,25.841 L19.518,25.841 C19.518,25.305 19.533,24.777 19.557,24.249 L19.557,24.249 C19.566,24.067 19.583,23.89 19.593,23.71 L19.593,23.71 C19.617,23.366 19.64,23.021 19.673,22.681 L19.673,22.681 C19.694,22.463 19.723,22.248 19.746,22.033 L19.746,22.033 C19.781,21.734 19.818,21.435 19.862,21.136 L19.862,21.136 C19.895,20.904 19.934,20.672 19.971,20.442 L19.971,20.442 C20.018,20.167 20.067,19.893 20.118,19.62 L20.118,19.62 C20.165,19.376 20.216,19.136 20.268,18.893 L20.268,18.893 C20.323,18.639 20.382,18.389 20.442,18.141 L20.442,18.141 C20.504,17.886 20.567,17.633 20.632,17.383 L20.632,17.383 C20.694,17.153 20.76,16.926 20.826,16.702 L20.826,16.702 C20.905,16.435 20.981,16.169 21.068,15.905 L21.068,15.905 C21.128,15.712 21.196,15.523 21.262,15.331 L21.262,15.331 C21.359,15.04 21.457,14.747 21.564,14.462 L21.564,14.462 C21.601,14.361 21.641,14.265 21.68,14.169 L21.68,14.169 C22.143,12.96 22.678,11.786 23.275,10.653 L23.275,10.653 L23.327,10.554 C23.516,10.198 23.713,9.85 23.915,9.503 L23.915,9.503 L24.041,9.284 C24.239,8.949 24.444,8.619 24.653,8.292 L24.653,8.292 C24.703,8.214 24.753,8.137 24.803,8.06 L24.803,8.06 C25.017,7.733 25.236,7.413 25.459,7.091 L25.459,7.091 L25.606,6.886 C25.839,6.559 26.078,6.241 26.321,5.924 L26.321,5.924 L26.44,5.775 C26.7,5.443 26.964,5.114 27.238,4.793 L27.238,4.793 L27.244,4.782 C25.351,5.101 23.413,5.289 21.429,5.286 L21.429,5.286 C14.327,5.286 7.722,3.174 2.195,-0.443 L2.195,-0.443 C0.746,3.796 -0.05,8.338 -0.05,13.073" id="Fill-410" fill="url(#linearGradient-19)" sketch:type="MSShapeGroup" mask="url(#mask-18)"></path>
            </g>
            <g id="Group-415" transform="translate(319.000000, 173.000000)">
                <mask id="mask-21" sketch:name="Clip 414" fill="white">
                    <use xlink:href="#path-20"></use>
                </mask>
                <g id="Clip-414"></g>
                <path d="M0.479,3.115 C0.479,11.665 3.94,19.384 9.544,24.987 L9.544,24.987 C15.152,30.591 22.877,34.049 31.429,34.049 L31.429,34.049 C36.475,34.049 41.223,32.846 45.427,30.715 L45.427,30.715 C45.601,30.623 49.324,28.796 51.124,28.15 L51.124,28.15 C34.804,23.773 20.125,15.402 8.223,4.122 L8.223,4.122 C5.957,2.314 3.41,0.849 0.659,-0.203 L0.659,-0.203 C0.543,0.887 0.479,1.992 0.479,3.115" id="Fill-413" fill="url(#radialGradient-22)" sketch:type="MSShapeGroup" mask="url(#mask-21)"></path>
            </g>
            <g id="Group-418" transform="translate(249.000000, 173.000000)">
                <mask id="mask-24" sketch:name="Clip 417" fill="white">
                    <use xlink:href="#path-23"></use>
                </mask>
                <g id="Clip-417"></g>
                <path d="M42.533,4.122 C30.63,15.402 15.95,23.773 -0.367,28.15 L-0.367,28.15 C1.432,28.796 5.156,30.623 5.328,30.715 L5.328,30.715 C9.53,32.846 14.28,34.049 19.324,34.049 L19.324,34.049 C27.878,34.049 35.602,30.591 41.211,24.987 L41.211,24.987 C46.816,19.384 50.275,11.665 50.276,3.115 L50.276,3.115 C50.276,1.992 50.213,0.887 50.097,-0.203 L50.097,-0.203 C47.345,0.849 44.797,2.314 42.533,4.122" id="Fill-416" fill="url(#radialGradient-25)" sketch:type="MSShapeGroup" mask="url(#mask-24)"></path>
            </g>
            <path d="M292.2998,171.5454 C294.2968,170.3074 296.4388,169.2794 298.6938,168.4924 L298.9148,168.4024 C298.0428,165.0094 296.6078,161.8454 294.7198,159.0074 C292.1328,160.3694 290.3708,163.0724 290.3678,166.1974 C290.3678,167.8734 290.8818,169.4444 291.7548,170.7374 L292.2998,171.5454 Z" id="Fill-419" fill="#52341D" sketch:type="MSShapeGroup"></path>
            <g id="Group-423" transform="translate(299.000000, 153.000000)">
                <mask id="mask-27" sketch:name="Clip 422" fill="white">
                    <use xlink:href="#path-26"></use>
                </mask>
                <g id="Clip-422"></g>
                <path d="M-0.312,4.344 C1.613,7.385 3.081,10.737 4.005,14.311 L4.005,14.311 C6.094,13.891 8.252,13.663 10.463,13.663 L10.463,13.663 C12.801,13.663 15.077,13.91 17.277,14.377 L17.277,14.377 C18.14,10.855 19.525,7.539 21.366,4.522 L21.366,4.522 C15.464,1.803 15.324,-0.173 10.335,-0.296 L10.335,-0.296 C5.457,-0.175 5.217,1.717 -0.312,4.344" id="Fill-421" fill="url(#linearGradient-28)" sketch:type="MSShapeGroup" mask="url(#mask-27)"></path>
            </g>
            <g id="Group-454">
                <path d="M315.2998,171.5024 L315.5048,171.5604 L315.5078,171.5484 L315.2998,171.5024 Z" id="Fill-424" fill="#A7A9AC" sketch:type="MSShapeGroup"></path>
                <path d="M326.4053,171.4063 L326.8543,170.7393 C327.7313,169.4443 328.2463,167.8733 328.2433,166.1983 C328.2403,163.2303 326.6543,160.6373 324.2793,159.2183 C322.4803,162.0423 321.1303,165.1773 320.3223,168.5253 C322.4613,169.2803 324.4963,170.2483 326.4053,171.4063" id="Fill-426" fill="#52341D" sketch:type="MSShapeGroup"></path>
                <mask id="mask-30" sketch:name="Clip 439" fill="white">
                    <use xlink:href="#path-29"></use>
                </mask>
                <g id="Clip-439"></g>
            </g>
        </g>
    </g>
</svg>