<svg xmlns="http://www.w3.org/2000/svg" xmlns:xlink="http://www.w3.org/1999/xlink" version="1.1" id="Layer_1" x="0px" y="0px" width="100px" height="100px" viewBox="5.0 -10.0 100.0 135.0" enable-background="new 0 0 100 100" xml:space="preserve">
<circle fill="none" cx="49.968" cy="72.829" r="1.847"/>
<rect x="8.803" y="19.051" width="82.21" height="7.372"/>
<rect x="65.77" y="27.731" width="25.244" height="33.957"/>
<rect x="8.803" y="28.241" width="54.285" height="2.011"/>
<rect x="8.803" y="32.423" width="23.01" height="2.012"/>
<rect x="8.803" y="36.605" width="54.285" height="2.011"/>
<rect x="8.803" y="40.788" width="54.285" height="2.011"/>
<rect x="8.803" y="44.97" width="54.285" height="2.012"/>
<rect x="8.803" y="49.152" width="23.01" height="2.011"/>
<rect x="8.803" y="53.335" width="54.285" height="2.011"/>
<rect x="8.803" y="57.518" width="54.285" height="2.012"/>
<path d="M94.637,12.18H50.755H49.26H5.379c-1.563,0-2.91,1.188-2.91,2.752v54.092v0.189v5.012v0.314c0,1.563,1.347,2.877,2.91,2.877  h35.146c-0.041,0.896-0.321,4.753-2.155,6.623c-1.445,1.473-3.454,2.854-2.669,3.563c0.19,0.436,1.091,0.688,3.14,0.688  c4.52,0,9.416,0,11.208,0c0.453,0,0.707,0,0.707,0c1.792,0,6.688,0,11.208,0c2.334,0,3.149-0.382,3.158-0.953h-0.08v-0.188H64.96  c-0.104-0.77-1.662-1.907-2.84-3.105c-1.834-1.87-2.113-5.727-2.154-6.623h34.675c1.563,0,2.83-1.313,2.83-2.877v-0.314v-5.012  v-0.189V14.934C97.469,13.368,96.199,12.18,94.637,12.18z M49.968,74.676c-1.021,0-1.846-0.824-1.846-1.846s0.826-1.848,1.846-1.848  c1.021,0,1.847,0.826,1.847,1.848C51.816,73.852,50.988,74.676,49.968,74.676z M93.463,65.021H6.476V15.996h86.987V65.021z"/>
<text x="0.0" y="117.5" font-size="5.0" font-weight="bold" font-family="Helvetica Neue, Helvetica, Arial-Unicode, Arial, Sans-serif" fill="#000000">Created by Wilson Joseph</text><text x="0.0" y="122.5" font-size="5.0" font-weight="bold" font-family="Helvetica Neue, Helvetica, Arial-Unicode, Arial, Sans-serif" fill="#000000">from the Noun Project</text></svg>