<svg xmlns="http://www.w3.org/2000/svg" xmlns:xlink="http://www.w3.org/1999/xlink" version="1.1" id="Layer_1" x="0px" y="0px" width="100px" height="100px" viewBox="5.0 -10.0 100.0 135.0" enable-background="new 0 0 100 100" xml:space="preserve">
<g>
	<circle fill="none" cx="50.001" cy="28.027" r="0.68"/>
	<path fill="none" d="M53.072,47.648c-0.648,0-1.221,0.482-1.371,1.16c-0.029,0.12-0.045,0.271-0.045,0.406v1.009   c0,0.181,0.016,0.347,0.045,0.482c0.15,0.617,0.678,1.084,1.34,1.084c0.994,0,1.582-0.828,1.582-2.078   C54.623,48.536,54.096,47.648,53.072,47.648z"/>
	<path fill="none" d="M83.857,29.707H16.143v36.57h67.714V29.707z M36.565,53.387h-2.289v-4.051c0-0.964-0.332-1.627-1.19-1.627   c-0.603,0-0.979,0.392-1.145,0.798c-0.06,0.151-0.075,0.347-0.075,0.513v4.369h-2.29V42.693h2.29v4.202h0.03   c0.241-0.316,0.542-0.557,0.904-0.753c0.332-0.181,0.768-0.286,1.19-0.286c1.461,0,2.575,1.009,2.575,3.223V53.387z M42.515,47.709   h-1.642v2.666c0,0.889,0.211,1.295,0.904,1.295c0.286,0,0.512-0.031,0.677-0.061l0.015,1.731c-0.301,0.119-0.843,0.195-1.491,0.195   c-0.738,0-1.355-0.257-1.717-0.634c-0.422-0.438-0.633-1.145-0.633-2.184v-3.012h-0.979V46.02h0.979v-1.597l2.245-0.509v2.108   h1.642V47.709z M48.042,47.709H46.4v2.666c0,0.889,0.211,1.295,0.904,1.295c0.286,0,0.512-0.031,0.677-0.061l0.015,1.731   c-0.301,0.119-0.843,0.195-1.491,0.195c-0.738,0-1.355-0.257-1.717-0.634c-0.422-0.438-0.633-1.145-0.633-2.184v-3.012h-0.979   V46.02h0.979v-1.597l2.245-0.509v2.108h1.642V47.709z M53.6,53.553c-0.89,0-1.582-0.361-1.914-0.844h-0.029v3.66h-2.29v-7.877   h0.001c0-0.964-0.03-1.792-0.06-2.47h1.988l0.105,1.023h0.029c0.543-0.783,1.387-1.189,2.454-1.189c1.611,0,3.058,1.4,3.058,3.75   C56.941,52.287,55.24,53.553,53.6,53.553z M59.548,53.553c-0.782,0-1.341-0.588-1.341-1.371c0-0.799,0.559-1.387,1.355-1.387   c0.799,0,1.326,0.572,1.34,1.387C60.902,52.965,60.361,53.553,59.548,53.553z M59.548,48.687c-0.782,0-1.341-0.587-1.341-1.37   c0-0.813,0.559-1.386,1.355-1.386c0.799,0,1.326,0.558,1.34,1.386C60.902,48.1,60.361,48.687,59.548,48.687z M63.132,53.988h-1.521   l3.223-10.918h1.521L63.132,53.988z M68.118,53.988h-1.521L69.82,43.07h1.521L68.118,53.988z"/>
	<path fill="none" d="M54.303,70.684h-8.606c-0.375,0-0.68,0.305-0.68,0.68s0.305,0.68,0.68,0.68h8.606   c0.377,0,0.68-0.305,0.68-0.68S54.68,70.684,54.303,70.684z"/>
	<path d="M86.627,69.109c0.111-0.229,0.178-0.479,0.178-0.748V28.106c0-0.952-0.771-1.725-1.727-1.725H14.919   c-0.953,0-1.725,0.772-1.725,1.725v40.255c0,0.27,0.067,0.521,0.176,0.748H5v2.783c0,0.953,0.772,1.726,1.726,1.726h86.549   c0.953,0,1.726-0.772,1.726-1.726v-2.783H86.627z M50.001,27.347c0.376,0,0.681,0.305,0.681,0.681s-0.305,0.68-0.681,0.68   s-0.681-0.304-0.681-0.68S49.625,27.347,50.001,27.347z M16.143,29.707h67.714v36.57H16.143V29.707z M54.303,72.043h-8.606   c-0.375,0-0.68-0.305-0.68-0.68s0.305-0.68,0.68-0.68h8.606c0.377,0,0.68,0.305,0.68,0.68S54.68,72.043,54.303,72.043z"/>
	<path d="M33.99,45.856c-0.422,0-0.858,0.105-1.19,0.286c-0.362,0.196-0.663,0.437-0.904,0.753h-0.03v-4.202h-2.29v10.696h2.29   V49.02c0-0.166,0.015-0.362,0.075-0.513c0.166-0.406,0.542-0.798,1.145-0.798c0.858,0,1.19,0.663,1.19,1.627v4.051h2.289v-4.308   C36.565,46.865,35.451,45.856,33.99,45.856z"/>
	<path d="M40.873,43.914l-2.245,0.509v1.597h-0.979v1.687h0.979v3.012c0,1.039,0.211,1.746,0.633,2.184   c0.362,0.377,0.979,0.634,1.717,0.634c0.648,0,1.19-0.076,1.491-0.195l-0.015-1.731c-0.165,0.029-0.391,0.061-0.677,0.061   c-0.693,0-0.904-0.406-0.904-1.295v-2.666h1.642v-1.687h-1.642V43.914z"/>
	<path d="M46.4,43.914l-2.245,0.509v1.597h-0.979v1.687h0.979v3.012c0,1.039,0.211,1.746,0.633,2.184   c0.362,0.377,0.979,0.634,1.717,0.634c0.648,0,1.19-0.076,1.491-0.195l-0.015-1.731c-0.165,0.029-0.391,0.061-0.677,0.061   c-0.693,0-0.904-0.406-0.904-1.295v-2.666h1.642v-1.687H46.4V43.914z"/>
	<path d="M53.884,45.856c-1.067,0-1.911,0.406-2.454,1.189H51.4l-0.105-1.023h-1.988c0.03,0.678,0.06,1.506,0.06,2.47h-0.001v7.877   h2.29v-3.66h0.029c0.332,0.482,1.024,0.844,1.914,0.844c1.641,0,3.342-1.266,3.342-3.947   C56.941,47.256,55.495,45.856,53.884,45.856z M53.041,51.789c-0.662,0-1.189-0.467-1.34-1.084   c-0.029-0.135-0.045-0.301-0.045-0.482v-1.009c0-0.135,0.016-0.286,0.045-0.406c0.15-0.678,0.723-1.16,1.371-1.16   c1.023,0,1.551,0.888,1.551,2.063C54.623,50.961,54.035,51.789,53.041,51.789z"/>
	<path d="M59.563,50.795c-0.797,0-1.355,0.588-1.355,1.387c0,0.783,0.559,1.371,1.341,1.371c0.813,0,1.354-0.588,1.354-1.371   C60.889,51.367,60.361,50.795,59.563,50.795z"/>
	<path d="M59.563,45.931c-0.797,0-1.355,0.573-1.355,1.386c0,0.783,0.559,1.37,1.341,1.37c0.813,0,1.354-0.587,1.354-1.37   C60.889,46.489,60.361,45.931,59.563,45.931z"/>
	<polygon points="61.611,53.988 63.132,53.988 66.355,43.07 64.834,43.07  "/>
	<polygon points="66.598,53.988 68.118,53.988 71.341,43.07 69.82,43.07  "/>
</g>
<text x="0.0" y="117.5" font-size="5.0" font-weight="bold" font-family="Helvetica Neue, Helvetica, Arial-Unicode, Arial, Sans-serif" fill="#000000">Created by Wilson Joseph</text><text x="0.0" y="122.5" font-size="5.0" font-weight="bold" font-family="Helvetica Neue, Helvetica, Arial-Unicode, Arial, Sans-serif" fill="#000000">from the Noun Project</text></svg>