<?xml version="1.0" encoding="UTF-8" standalone="no"?>
<svg width="651px" height="631px" viewBox="0 0 651 631" version="1.1" xmlns="http://www.w3.org/2000/svg" xmlns:xlink="http://www.w3.org/1999/xlink" xmlns:sketch="http://www.bohemiancoding.com/sketch/ns">
    <title>Thick Texas Vector</title>
    <description>Created with Sketch (http://www.bohemiancoding.com/sketch)</description>
    <defs></defs>
    <g id="Page 1" fill="rgb(206,206,206)" fill-rule="evenodd">
        <path d="M279,11 L349,11 L349,131 L387.210938,140.773438 L451.914062,151 L545.769531,162.707031 L579,156.582031 L619,185.894531 L619,279.246094 L639,318.886719 L619,392 L545.769531,438.011719 L490.011719,491 L480,551 L490.011719,617.054688 L380,591 L339,491 L299,431 L267.394531,402.371094 L239,392 L205.496094,402.371094 L179,438.011719 L119,397.972656 L92,331 L39,303.429688 L19,271 L192.222656,271 L192.222656,11 L279,11 Z M279,11" id="Path 1" stroke="rgb(0,0,0)" stroke-width="21" fill="rgb(254,255,254)"></path>
    </g>
</svg>